<svg xmlns="http://www.w3.org/2000/svg" viewBox="0 0 1891.49 580.62"><defs><style>.cls-1{fill:#ffadde;}.cls-2{fill:#adbffd;}.cls-3{fill:#92ebeb;}.cls-4{fill:#95f1c5;}.cls-5{fill:#ffe375;}.cls-6{fill:#ffc48c;}</style></defs><g id="shadow"><path d="M332.85,382.15a22.68,22.68,0,0,1-12.21-6.59,17.76,17.76,0,0,1-5.08-12.9V247.09a16.52,16.52,0,0,1-9.61-1.24,19,19,0,0,1-7.41-5.49,14.5,14.5,0,0,1-3.15-8,11.76,11.76,0,0,1,2.88-8.64,32.9,32.9,0,0,1,8.51-7.83,55.22,55.22,0,0,1,10.43-5.21,90.59,90.59,0,0,1,11.39-3.43q5.89-1.38,11.39-2.47a128.38,128.38,0,0,1,30.75-1.24,99.2,99.2,0,0,1,29.09,6.73A88,88,0,0,1,425,225.68a75.75,75.75,0,0,1,18.53,24.7,77.45,77.45,0,0,1,6.31,18.81,119.17,119.17,0,0,1,2.2,19.62,87.3,87.3,0,0,1-3,25,85,85,0,0,1-25.8,41.45A89.67,89.67,0,0,1,402.3,369a94.37,94.37,0,0,1-21.54,6.86q-11.4,2.19-22.38,3.84-5.49.82-11.66,1.79a77.79,77.79,0,0,1-11.94,1ZM362.5,236.38c-2.38,0-4.62.1-6.72.28s-4.35.46-6.73.82V347.56a11.24,11.24,0,0,0,2.75-.28A9.06,9.06,0,0,1,354,347a5.89,5.89,0,0,0,1.92-.28q3.84-.54,6.32-.82c1.64-.18,3.2-.41,4.66-.69s3-.59,4.53-1,3.34-.82,5.36-1.37q15.92-4.11,25.11-13t13.86-24.57a52.67,52.67,0,0,0,2.75-18.39,55.67,55.67,0,0,0-3.43-17.84,50.55,50.55,0,0,0-9.2-15.51,44,44,0,0,0-14.82-11.12A53.65,53.65,0,0,0,376.91,238Q369.92,236.94,362.5,236.38Z"/><path d="M452.45,306.11a90.16,90.16,0,0,1,5.36-15.65,85.66,85.66,0,0,1,8.37-14.68A81.84,81.84,0,0,1,477.3,263a56.43,56.43,0,0,1,13.31-9.33A55.86,55.86,0,0,1,516,247,53.36,53.36,0,0,1,539.74,252a49.77,49.77,0,0,1,18.67,15.51,56.53,56.53,0,0,1,10.16,24.57,139.77,139.77,0,0,1,1.51,17.7,77.85,77.85,0,0,1-1.79,17.43,75.46,75.46,0,0,1-11.11,25.67,83.23,83.23,0,0,1-20,21.41,62.91,62.91,0,0,1-25.53,11.39q-13.86,2.75-27.86-4.39a61,61,0,0,1-11.4-7,50.13,50.13,0,0,1-9.19-9.47,51.38,51.38,0,0,1-7.28-12.63,95.53,95.53,0,0,1-4.25-13.72A49.22,49.22,0,0,1,450.26,323a133.09,133.09,0,0,1,1.92-15.23Zm32.94,5.76c-.55,2.93-1,5.81-1.37,8.65a33.84,33.84,0,0,0,0,8.65,36,36,0,0,0,3.43,11.53,21.91,21.91,0,0,0,6.86,8.23,17.15,17.15,0,0,0,9.75,3.16q5.49.14,11.8-3.43,8-4.67,13.73-14.42a53.08,53.08,0,0,0,7.14-20.31,41.08,41.08,0,0,0-2.2-20q-3.57-9.47-14-13.59a30.43,30.43,0,0,0-12.63,2.61,33.68,33.68,0,0,0-10,6.87,43.44,43.44,0,0,0-7.41,10A64.37,64.37,0,0,0,485.39,311.87Z"/><path d="M573.7,306.11a90.12,90.12,0,0,1,5.35-15.65,87,87,0,0,1,8.37-14.68A82.36,82.36,0,0,1,598.54,263a56.63,56.63,0,0,1,13.31-9.33A55.92,55.92,0,0,1,637.24,247,53.4,53.4,0,0,1,661,252a49.84,49.84,0,0,1,18.67,15.51,56.52,56.52,0,0,1,10.15,24.57,136.18,136.18,0,0,1,1.51,17.7,77.82,77.82,0,0,1-1.78,17.43,75.49,75.49,0,0,1-11.12,25.67,82.89,82.89,0,0,1-20,21.41,62.91,62.91,0,0,1-25.53,11.39Q619,388.46,605,381.32a61,61,0,0,1-11.39-7,50.18,50.18,0,0,1-9.2-9.47,51.65,51.65,0,0,1-7.27-12.63,95.55,95.55,0,0,1-4.26-13.72A49.22,49.22,0,0,1,571.5,323a135.36,135.36,0,0,1,1.92-15.23Zm32.94,5.76q-.82,4.39-1.38,8.65a34.77,34.77,0,0,0,0,8.65,36,36,0,0,0,3.44,11.53,21.73,21.73,0,0,0,6.86,8.23,17.1,17.1,0,0,0,9.74,3.16q5.49.14,11.81-3.43,7.95-4.67,13.72-14.42A52.91,52.91,0,0,0,658,313.93a41.08,41.08,0,0,0-2.2-20q-3.57-9.47-14-13.59a30.39,30.39,0,0,0-12.62,2.61,33.42,33.42,0,0,0-10,6.87,43.44,43.44,0,0,0-7.41,10A63.72,63.72,0,0,0,606.64,311.87Z"/><path d="M821.76,349.75q4.66,8,3.16,14.28a15.16,15.16,0,0,1-6.18,9.47A16.75,16.75,0,0,1,807.35,376q-6.74-.69-13-7a58.52,58.52,0,0,1-13.72,7.27,139.79,139.79,0,0,1-15.1,4.53,48.45,48.45,0,0,1-23.75-.41,54.38,54.38,0,0,1-34.45-28,54.35,54.35,0,0,1-6-22.92,92.88,92.88,0,0,1,2.06-26.35,77.49,77.49,0,0,1,9.2-23.06,60.33,60.33,0,0,1,16.61-17.84,64.15,64.15,0,0,1,24.29-10.43A84.29,84.29,0,0,1,770,250.11a101.32,101.32,0,0,1,16.6,1.37c-.18-4-.32-8.65-.41-13.86s-.13-10.29-.13-15.24.18-9.37.54-13.31A42.16,42.16,0,0,1,788,200.7a15.32,15.32,0,0,1,5.9-7.55,16,16,0,0,1,8.37-2.75,16.77,16.77,0,0,1,8.65,2.2,16.6,16.6,0,0,1,6.72,7,14.15,14.15,0,0,0,1.38,2.61,4.68,4.68,0,0,1,.82,2.61q.27,36,.14,71.09t-.14,71.1C820.57,348.11,821.21,349,821.76,349.75ZM783.6,334.66a5.86,5.86,0,0,1,2.06-1.65,2.46,2.46,0,0,0,1.51-2.2V308.17q0-11.12-.27-22.65a84.11,84.11,0,0,0-13.73-1.65,49.93,49.93,0,0,0-13.86,1.38A37.35,37.35,0,0,0,747,290.74a26.13,26.13,0,0,0-8.92,11q-1.65,5.2-3,10.43a44.39,44.39,0,0,0-1.51,10.15,31.92,31.92,0,0,0,1.23,9.75,28.16,28.16,0,0,0,4.67,9.19,20.64,20.64,0,0,0,2.61,2.2c1,.73,3,2,5.9,3.84a52.28,52.28,0,0,0,19.35-1.92A35.36,35.36,0,0,0,783.6,334.66Z"/><path d="M877.13,354.7a22.66,22.66,0,0,1,5.07,7,20.88,20.88,0,0,1,2.2,8.51,15.18,15.18,0,0,1-1.92,8q-2.06,3.7-7.28,5.62a18.52,18.52,0,0,1-9.05.55,33.34,33.34,0,0,1-9.75-3.29,38.45,38.45,0,0,1-8.51-5.9,21,21,0,0,1-5.35-7.55,14.67,14.67,0,0,1-.83-3.16,21.38,21.38,0,0,1-.27-3.16V208.93a14,14,0,0,1,4.8-10.7A19.6,19.6,0,0,1,856.81,193a13.83,13.83,0,0,1,5.9.83,21.74,21.74,0,0,1,5.91,3.15,19.29,19.29,0,0,1,4.53,4.81,10.48,10.48,0,0,1,1.78,5.76V226.5q0,11.81.14,25.81t.13,29q0,15-.13,28.68t-.14,25.12q0,11.39-.27,18.25Z"/><path d="M987.12,334.93a22,22,0,0,1,11.67-.14,15,15,0,0,1,7.82,5.08,12.84,12.84,0,0,1,2.47,8.79q-.27,5.2-4.66,11a29.32,29.32,0,0,1-9.89,8,90.75,90.75,0,0,1-11.8,5.21,136.17,136.17,0,0,1-25.53,6.86,67.21,67.21,0,0,1-22.65,0,52.87,52.87,0,0,1-19.76-8,67,67,0,0,1-17.16-17,50.55,50.55,0,0,1-8.09-16.89,80.34,80.34,0,0,1-2.89-19.35A87,87,0,0,1,888.3,299a76.57,76.57,0,0,1,5.49-17.29q4.66-9.62,14.82-17.57a85.11,85.11,0,0,1,22.51-12.63,83.76,83.76,0,0,1,25.26-5.35q12.9-.69,22.78,4a39.62,39.62,0,0,1,14.14,11.12,41.39,41.39,0,0,1,8.1,15.78,37.54,37.54,0,0,1,.41,17.16A31.13,31.13,0,0,1,992.89,310a60.76,60.76,0,0,1-15.1,11.12,139.86,139.86,0,0,1-17,7.41,167.7,167.7,0,0,1-18,5.35q-9.19,2.21-17.71,4.94a25.27,25.27,0,0,0,13.18,8.38,41.59,41.59,0,0,0,15.51.68,65.08,65.08,0,0,0,16.33-4.53,131.52,131.52,0,0,0,15.37-7.55Zm-55.45-47.21a23.73,23.73,0,0,0-9.33,8.92q-3,5.36-4.39,15,7.13-2.19,16.06-4.67t16.88-5.21a72.59,72.59,0,0,0,13.45-6q5.49-3.3,5.49-7.14a13.28,13.28,0,0,0-.69-4.25,4.53,4.53,0,0,0-2.88-2.89,29.54,29.54,0,0,0-15.92-1.1A48.33,48.33,0,0,0,936.61,285Z"/><path d="M1017.22,354a24.14,24.14,0,0,1-1.42-9.48,19.73,19.73,0,0,1,2.41-8.49,14.8,14.8,0,0,1,6.09-5.95,16.54,16.54,0,0,1,9.62-1.55,14.26,14.26,0,0,1,5.66,1.69,24.06,24.06,0,0,1,4.67,3.4q2.12,2,4.25,4.25a35.07,35.07,0,0,0,14.57,9.34,70.27,70.27,0,0,0,11.32,2.54,9.65,9.65,0,0,0,6.37-2A9.77,9.77,0,0,0,1084,343a14.58,14.58,0,0,0,.42-6.08,9.8,9.8,0,0,0-2.12-5.24,22.68,22.68,0,0,0-11.75-6.23,111,111,0,0,1-12.88-3.39,107.72,107.72,0,0,1-16.7-7.22,36.23,36.23,0,0,1-13.3-12,37,37,0,0,1-6.37-16.84,44.93,44.93,0,0,1,1.42-17.41,43.61,43.61,0,0,1,8.07-15.56,47.23,47.23,0,0,1,13.58-11.61,36.29,36.29,0,0,1,13-4.39,66.19,66.19,0,0,1,14.29-.42,68,68,0,0,1,14.3,2.69,122,122,0,0,1,13,4.67,22.36,22.36,0,0,1,10.19,8.77,21.13,21.13,0,0,1,3.25,11.47,15.09,15.09,0,0,1-4,10q-3.82,4.25-11.18,4.25a20.83,20.83,0,0,1-8.21-1.56q-3.67-1.55-7.64-3a45.52,45.52,0,0,0-11-2.69q-5.94-.71-9.62.71a5.63,5.63,0,0,0-2.55,1.84,9.93,9.93,0,0,0-2.12,3.82,9.2,9.2,0,0,0-.29,4.53,5.39,5.39,0,0,0,3,3.68,64,64,0,0,0,14.43,5.66q7.65,2,15,4.53a68.19,68.19,0,0,1,13.73,6.51,31.45,31.45,0,0,1,10.61,11.32,45.47,45.47,0,0,1,6.37,22.5,49.37,49.37,0,0,1-4.67,21.94,47.34,47.34,0,0,1-14.15,17.4,42.9,42.9,0,0,1-21.79,8.64,55.8,55.8,0,0,1-17.27-1,66.29,66.29,0,0,1-16.42-5.94,81.85,81.85,0,0,1-14.71-9.76,89,89,0,0,1-11.89-11.89Z"/></g><g id="fills"><path class="cls-1" d="M328.85,362.15a22.68,22.68,0,0,1-12.21-6.59,17.76,17.76,0,0,1-5.08-12.9V227.09a16.52,16.52,0,0,1-9.61-1.24,19,19,0,0,1-7.41-5.49,14.5,14.5,0,0,1-3.15-8,11.76,11.76,0,0,1,2.88-8.64,32.9,32.9,0,0,1,8.51-7.83,55.22,55.22,0,0,1,10.43-5.21,90.59,90.59,0,0,1,11.39-3.43q5.89-1.38,11.39-2.47a128.38,128.38,0,0,1,30.75-1.24,99.2,99.2,0,0,1,29.09,6.73A88,88,0,0,1,421,205.68a75.75,75.75,0,0,1,18.53,24.7,77.45,77.45,0,0,1,6.31,18.81,119.17,119.17,0,0,1,2.2,19.62,87.3,87.3,0,0,1-3,25,85,85,0,0,1-25.8,41.45A89.67,89.67,0,0,1,398.3,349a94.37,94.37,0,0,1-21.54,6.86q-11.4,2.19-22.38,3.84-5.49.82-11.66,1.79a77.79,77.79,0,0,1-11.94,1ZM358.5,216.38c-2.38,0-4.62.1-6.72.28s-4.35.46-6.73.82V327.56a11.24,11.24,0,0,0,2.75-.28A9.06,9.06,0,0,1,350,327a5.89,5.89,0,0,0,1.92-.28q3.84-.54,6.32-.82c1.64-.18,3.2-.41,4.66-.69s3-.59,4.53-1,3.34-.82,5.36-1.37q15.92-4.11,25.11-13t13.86-24.57a52.67,52.67,0,0,0,2.75-18.39,55.67,55.67,0,0,0-3.43-17.84,50.55,50.55,0,0,0-9.2-15.51,44,44,0,0,0-14.82-11.12A53.65,53.65,0,0,0,372.91,218Q365.92,216.94,358.5,216.38Z"/><path class="cls-2" d="M448.45,286.11a90.16,90.16,0,0,1,5.36-15.65,85.66,85.66,0,0,1,8.37-14.68A81.84,81.84,0,0,1,473.3,243a56.43,56.43,0,0,1,13.31-9.33A55.86,55.86,0,0,1,512,227,53.36,53.36,0,0,1,535.74,232a49.77,49.77,0,0,1,18.67,15.51,56.53,56.53,0,0,1,10.16,24.57,139.77,139.77,0,0,1,1.51,17.7,77.85,77.85,0,0,1-1.79,17.43,75.46,75.46,0,0,1-11.11,25.67,83.23,83.23,0,0,1-20,21.41,62.91,62.91,0,0,1-25.53,11.39q-13.86,2.75-27.86-4.39a61,61,0,0,1-11.4-7,50.13,50.13,0,0,1-9.19-9.47,51.38,51.38,0,0,1-7.28-12.63,95.53,95.53,0,0,1-4.25-13.72A49.22,49.22,0,0,1,446.26,303a133.09,133.09,0,0,1,1.92-15.23Zm32.94,5.76c-.55,2.93-1,5.81-1.37,8.65a33.84,33.84,0,0,0,0,8.65,36,36,0,0,0,3.43,11.53,21.91,21.91,0,0,0,6.86,8.23,17.15,17.15,0,0,0,9.75,3.16q5.49.14,11.8-3.43,8-4.67,13.73-14.42a53.08,53.08,0,0,0,7.14-20.31,41.08,41.08,0,0,0-2.2-20q-3.57-9.47-14-13.59a30.43,30.43,0,0,0-12.63,2.61,33.68,33.68,0,0,0-10,6.87,43.44,43.44,0,0,0-7.41,10A64.37,64.37,0,0,0,481.39,291.87Z"/><path class="cls-3" d="M569.7,286.11a90.12,90.12,0,0,1,5.35-15.65,87,87,0,0,1,8.37-14.68A82.36,82.36,0,0,1,594.54,243a56.63,56.63,0,0,1,13.31-9.33A55.92,55.92,0,0,1,633.24,227,53.4,53.4,0,0,1,657,232a49.84,49.84,0,0,1,18.67,15.51,56.52,56.52,0,0,1,10.15,24.57,136.18,136.18,0,0,1,1.51,17.7,77.82,77.82,0,0,1-1.78,17.43,75.49,75.49,0,0,1-11.12,25.67,82.89,82.89,0,0,1-20,21.41,62.91,62.91,0,0,1-25.53,11.39Q615,368.46,601,361.32a61,61,0,0,1-11.39-7,50.18,50.18,0,0,1-9.2-9.47,51.65,51.65,0,0,1-7.27-12.63,95.55,95.55,0,0,1-4.26-13.72A49.22,49.22,0,0,1,567.5,303a135.36,135.36,0,0,1,1.92-15.23Zm32.94,5.76q-.82,4.39-1.38,8.65a34.77,34.77,0,0,0,0,8.65,36,36,0,0,0,3.44,11.53,21.73,21.73,0,0,0,6.86,8.23,17.1,17.1,0,0,0,9.74,3.16q5.49.14,11.81-3.43,7.95-4.67,13.72-14.42A52.91,52.91,0,0,0,654,293.93a41.08,41.08,0,0,0-2.2-20q-3.57-9.47-14-13.59a30.39,30.39,0,0,0-12.62,2.61,33.42,33.42,0,0,0-10,6.87,43.44,43.44,0,0,0-7.41,10A63.72,63.72,0,0,0,602.64,291.87Z"/><path class="cls-4" d="M817.76,329.75q4.66,8,3.16,14.28a15.16,15.16,0,0,1-6.18,9.47A16.75,16.75,0,0,1,803.35,356q-6.74-.69-13-7a58.52,58.52,0,0,1-13.72,7.27,139.79,139.79,0,0,1-15.1,4.53,48.45,48.45,0,0,1-23.75-.41,54.38,54.38,0,0,1-34.45-28,54.35,54.35,0,0,1-6-22.92,92.88,92.88,0,0,1,2.06-26.35,77.49,77.49,0,0,1,9.2-23.06,60.33,60.33,0,0,1,16.61-17.84,64.15,64.15,0,0,1,24.29-10.43A84.29,84.29,0,0,1,766,230.11a101.32,101.32,0,0,1,16.6,1.37c-.18-4-.32-8.65-.41-13.86s-.13-10.29-.13-15.24.18-9.37.54-13.31A42.16,42.16,0,0,1,784,180.7a15.32,15.32,0,0,1,5.9-7.55,16,16,0,0,1,8.37-2.75,16.77,16.77,0,0,1,8.65,2.2,16.6,16.6,0,0,1,6.72,7,14.15,14.15,0,0,0,1.38,2.61,4.68,4.68,0,0,1,.82,2.61q.27,36,.14,71.09t-.14,71.1C816.57,328.11,817.21,329,817.76,329.75ZM779.6,314.66a5.86,5.86,0,0,1,2.06-1.65,2.46,2.46,0,0,0,1.51-2.2V288.17q0-11.12-.27-22.65a84.11,84.11,0,0,0-13.73-1.65,49.93,49.93,0,0,0-13.86,1.38A37.35,37.35,0,0,0,743,270.74a26.13,26.13,0,0,0-8.92,11q-1.65,5.2-3,10.43a44.39,44.39,0,0,0-1.51,10.15,31.92,31.92,0,0,0,1.23,9.75,28.16,28.16,0,0,0,4.67,9.19,20.64,20.64,0,0,0,2.61,2.2c1,.73,3,2,5.9,3.84a52.28,52.28,0,0,0,19.35-1.92A35.36,35.36,0,0,0,779.6,314.66Z"/><path class="cls-5" d="M873.13,334.7a22.66,22.66,0,0,1,5.07,7,20.88,20.88,0,0,1,2.2,8.51,15.18,15.18,0,0,1-1.92,8q-2.06,3.7-7.28,5.62a18.52,18.52,0,0,1-9.05.55,33.34,33.34,0,0,1-9.75-3.29,38.45,38.45,0,0,1-8.51-5.9,21,21,0,0,1-5.35-7.55,14.67,14.67,0,0,1-.83-3.16,21.38,21.38,0,0,1-.27-3.16V188.93a14,14,0,0,1,4.8-10.7A19.6,19.6,0,0,1,852.81,173a13.83,13.83,0,0,1,5.9.83,21.74,21.74,0,0,1,5.91,3.15,19.29,19.29,0,0,1,4.53,4.81,10.48,10.48,0,0,1,1.78,5.76V206.5q0,11.81.14,25.81t.13,29q0,15-.13,28.68t-.14,25.12q0,11.39-.27,18.25Z"/><path class="cls-6" d="M983.12,314.93a22,22,0,0,1,11.67-.14,15,15,0,0,1,7.82,5.08,12.84,12.84,0,0,1,2.47,8.79q-.27,5.2-4.66,11a29.32,29.32,0,0,1-9.89,8,90.75,90.75,0,0,1-11.8,5.21,136.17,136.17,0,0,1-25.53,6.86,67.21,67.21,0,0,1-22.65,0,52.87,52.87,0,0,1-19.76-8,67,67,0,0,1-17.16-17,50.55,50.55,0,0,1-8.09-16.89,80.34,80.34,0,0,1-2.89-19.35A87,87,0,0,1,884.3,279a76.57,76.57,0,0,1,5.49-17.29q4.66-9.62,14.82-17.57a85.11,85.11,0,0,1,22.51-12.63,83.76,83.76,0,0,1,25.26-5.35q12.9-.69,22.78,4a39.62,39.62,0,0,1,14.14,11.12A41.39,41.39,0,0,1,997.4,257a37.54,37.54,0,0,1,.41,17.16A31.13,31.13,0,0,1,988.89,290a60.76,60.76,0,0,1-15.1,11.12,139.86,139.86,0,0,1-17,7.41,167.7,167.7,0,0,1-18,5.35q-9.19,2.21-17.71,4.94a25.27,25.27,0,0,0,13.18,8.38,41.59,41.59,0,0,0,15.51.68,65.08,65.08,0,0,0,16.33-4.53,131.52,131.52,0,0,0,15.37-7.55Zm-55.45-47.21a23.73,23.73,0,0,0-9.33,8.92q-3,5.36-4.39,15,7.13-2.19,16.06-4.67t16.88-5.21a72.59,72.59,0,0,0,13.45-6q5.49-3.3,5.49-7.14a13.28,13.28,0,0,0-.69-4.25,4.53,4.53,0,0,0-2.88-2.89,29.54,29.54,0,0,0-15.92-1.1A48.33,48.33,0,0,0,932.61,265Z"/><path class="cls-1" d="M1013.22,334a24.14,24.14,0,0,1-1.42-9.48,19.73,19.73,0,0,1,2.41-8.49,14.8,14.8,0,0,1,6.09-5.95,16.54,16.54,0,0,1,9.62-1.55,14.26,14.26,0,0,1,5.66,1.69,24.06,24.06,0,0,1,4.67,3.4q2.12,2,4.25,4.25a35.07,35.07,0,0,0,14.57,9.34,70.27,70.27,0,0,0,11.32,2.54,9.65,9.65,0,0,0,6.37-2A9.77,9.77,0,0,0,1080,323a14.58,14.58,0,0,0,.42-6.08,9.8,9.8,0,0,0-2.12-5.24,22.68,22.68,0,0,0-11.75-6.23,111,111,0,0,1-12.88-3.39,107.72,107.72,0,0,1-16.7-7.22,36.23,36.23,0,0,1-13.3-12,37,37,0,0,1-6.37-16.84,44.93,44.93,0,0,1,1.42-17.41,43.61,43.61,0,0,1,8.07-15.56,47.23,47.23,0,0,1,13.58-11.61,36.29,36.29,0,0,1,13-4.39,66.19,66.19,0,0,1,14.29-.42,68,68,0,0,1,14.3,2.69,122,122,0,0,1,13,4.67,22.36,22.36,0,0,1,10.19,8.77,21.13,21.13,0,0,1,3.25,11.47,15.09,15.09,0,0,1-4,10q-3.82,4.25-11.18,4.25a20.83,20.83,0,0,1-8.21-1.56q-3.67-1.55-7.64-3a45.52,45.52,0,0,0-11-2.69q-5.94-.7-9.62.71a5.63,5.63,0,0,0-2.55,1.84,9.93,9.93,0,0,0-2.12,3.82,9.2,9.2,0,0,0-.29,4.53,5.39,5.39,0,0,0,3,3.68,64,64,0,0,0,14.43,5.66q7.65,2,15,4.53a68.19,68.19,0,0,1,13.73,6.51,31.45,31.45,0,0,1,10.61,11.32,45.47,45.47,0,0,1,6.37,22.5,49.37,49.37,0,0,1-4.67,21.94,47.34,47.34,0,0,1-14.15,17.4,42.9,42.9,0,0,1-21.79,8.64,55.8,55.8,0,0,1-17.27-1,66.29,66.29,0,0,1-16.42-5.94,81.85,81.85,0,0,1-14.71-9.76,89,89,0,0,1-11.89-11.89Z"/></g><g id="outline"><path class="cls-1" d="M328.85,362.15a22.68,22.68,0,0,1-12.21-6.59,17.76,17.76,0,0,1-5.08-12.9V227.09a16.52,16.52,0,0,1-9.61-1.24,19,19,0,0,1-7.41-5.49,14.5,14.5,0,0,1-3.15-8,11.76,11.76,0,0,1,2.88-8.64,32.9,32.9,0,0,1,8.51-7.83,55.22,55.22,0,0,1,10.43-5.21,90.59,90.59,0,0,1,11.39-3.43q5.89-1.38,11.39-2.47a128.38,128.38,0,0,1,30.75-1.24,99.2,99.2,0,0,1,29.09,6.73A88,88,0,0,1,421,205.68a75.75,75.75,0,0,1,18.53,24.7,77.45,77.45,0,0,1,6.31,18.81,119.17,119.17,0,0,1,2.2,19.62,87.3,87.3,0,0,1-3,25,85,85,0,0,1-25.8,41.45A89.67,89.67,0,0,1,398.3,349a94.37,94.37,0,0,1-21.54,6.86q-11.4,2.19-22.38,3.84-5.49.82-11.66,1.79a77.79,77.79,0,0,1-11.94,1ZM358.5,216.38c-2.38,0-4.62.1-6.72.28s-4.35.46-6.73.82V327.56a11.24,11.24,0,0,0,2.75-.28A9.06,9.06,0,0,1,350,327a5.89,5.89,0,0,0,1.92-.28q3.84-.54,6.32-.82c1.64-.18,3.2-.41,4.66-.69s3-.59,4.53-1,3.34-.82,5.36-1.37q15.92-4.11,25.11-13t13.86-24.57a52.67,52.67,0,0,0,2.75-18.39,55.67,55.67,0,0,0-3.43-17.84,50.55,50.55,0,0,0-9.2-15.51,44,44,0,0,0-14.82-11.12A53.65,53.65,0,0,0,372.91,218Q365.92,216.94,358.5,216.38Z"/><path d="M356.48,183.17q5.13,0,10.26.41a99.2,99.2,0,0,1,29.09,6.73A88,88,0,0,1,421,205.68a75.75,75.75,0,0,1,18.53,24.7,77.45,77.45,0,0,1,6.31,18.81,119.17,119.17,0,0,1,2.2,19.62,87.3,87.3,0,0,1-3,25,85,85,0,0,1-25.8,41.45A89.67,89.67,0,0,1,398.3,349a94.37,94.37,0,0,1-21.54,6.86q-11.4,2.19-22.38,3.85-5.49.81-11.66,1.78a77.79,77.79,0,0,1-11.94,1l-1.93-.27a22.68,22.68,0,0,1-12.21-6.59,17.76,17.76,0,0,1-5.08-12.9V227.09a16.42,16.42,0,0,1-9.61-1.24,19,19,0,0,1-7.41-5.49,14.59,14.59,0,0,1-3.16-8,11.82,11.82,0,0,1,2.89-8.64,32.9,32.9,0,0,1,8.51-7.83,55.22,55.22,0,0,1,10.43-5.21,90.59,90.59,0,0,1,11.39-3.43q5.89-1.38,11.39-2.47a128.67,128.67,0,0,1,20.49-1.65M345.05,327.56a11.24,11.24,0,0,0,2.75-.28A9.06,9.06,0,0,1,350,327a5.89,5.89,0,0,0,1.92-.28q3.84-.54,6.32-.82c1.64-.18,3.2-.41,4.66-.69s3-.59,4.53-1,3.34-.82,5.36-1.37q15.92-4.11,25.11-13t13.86-24.57a52.67,52.67,0,0,0,2.75-18.39,55.94,55.94,0,0,0-3.43-17.84,50.55,50.55,0,0,0-9.2-15.51,44,44,0,0,0-14.82-11.12A53.65,53.65,0,0,0,372.91,218q-7-1.09-14.41-1.65c-2.38,0-4.62.1-6.72.28s-4.35.46-6.73.82V327.56m11.43-151.39a135.59,135.59,0,0,0-21.6,1.74l-.13,0-.13,0c-3.72.75-7.62,1.59-11.6,2.52a100,100,0,0,0-12.27,3.69A63.43,63.43,0,0,0,299,190a40,40,0,0,0-10.26,9.42A18.9,18.9,0,0,0,284.41,213a21.45,21.45,0,0,0,4.67,11.7,26,26,0,0,0,10.05,7.52,24.5,24.5,0,0,0,5.43,1.68V342.66a24.65,24.65,0,0,0,7.06,17.78A29.68,29.68,0,0,0,327.53,369l.17,0,.17,0,1.92.27.49.07h.5a85.51,85.51,0,0,0,13-1c3.78-.59,7.58-1.18,11.63-1.78,7.37-1.11,15-2.42,22.66-3.89a101.5,101.5,0,0,0,23.14-7.38l0,0,0,0a96.88,96.88,0,0,0,22.49-14.8,92,92,0,0,0,27.92-44.85,95,95,0,0,0,3.27-27,126.63,126.63,0,0,0-2.33-20.83,84.68,84.68,0,0,0-6.88-20.51,83.13,83.13,0,0,0-20.24-26.94,95.75,95.75,0,0,0-27.1-16.58,106.94,106.94,0,0,0-31.14-7.21c-3.59-.28-7.23-.43-10.82-.43Zm-4.43,47.49.34,0c1.83-.16,3.81-.24,5.85-.24,4.63.35,9.2.87,13.59,1.56a47.09,47.09,0,0,1,12.29,3.83,37.12,37.12,0,0,1,12.45,9.33,43.78,43.78,0,0,1,7.94,13.38,49.15,49.15,0,0,1,3,15.61,46.07,46.07,0,0,1-2.39,16l0,.11,0,.1c-2.76,9.23-6.8,16.48-12,21.55s-12.62,8.86-22,11.28l0,0h0c-2,.54-3.68,1-5.12,1.31s-2.82.63-4.22.89-2.72.46-4.13.61-3.29.4-5.42.7v-96Z"/><path class="cls-2" d="M448.45,286.11a90.16,90.16,0,0,1,5.36-15.65,85.66,85.66,0,0,1,8.37-14.68A81.84,81.84,0,0,1,473.3,243a56.43,56.43,0,0,1,13.31-9.33A55.86,55.86,0,0,1,512,227,53.36,53.36,0,0,1,535.74,232a49.77,49.77,0,0,1,18.67,15.51,56.53,56.53,0,0,1,10.16,24.57,139.77,139.77,0,0,1,1.51,17.7,77.85,77.85,0,0,1-1.79,17.43,75.46,75.46,0,0,1-11.11,25.67,83.23,83.23,0,0,1-20,21.41,62.91,62.91,0,0,1-25.53,11.39q-13.86,2.75-27.86-4.39a61,61,0,0,1-11.4-7,50.13,50.13,0,0,1-9.19-9.47,51.38,51.38,0,0,1-7.28-12.63,95.53,95.53,0,0,1-4.25-13.72A49.22,49.22,0,0,1,446.26,303a133.09,133.09,0,0,1,1.92-15.23Zm32.94,5.76c-.55,2.93-1,5.81-1.37,8.65a33.84,33.84,0,0,0,0,8.65,36,36,0,0,0,3.43,11.53,21.91,21.91,0,0,0,6.86,8.23,17.15,17.15,0,0,0,9.75,3.16q5.49.14,11.8-3.43,8-4.67,13.73-14.42a53.08,53.08,0,0,0,7.14-20.31,41.08,41.08,0,0,0-2.2-20q-3.57-9.47-14-13.59a30.43,30.43,0,0,0-12.63,2.61,33.68,33.68,0,0,0-10,6.87,43.44,43.44,0,0,0-7.41,10A64.37,64.37,0,0,0,481.39,291.87Z"/><path d="M512.64,227a53.1,53.1,0,0,1,23.1,5.08,49.77,49.77,0,0,1,18.67,15.51,56.58,56.58,0,0,1,10.16,24.57,139.77,139.77,0,0,1,1.51,17.7,77.85,77.85,0,0,1-1.79,17.43,75.46,75.46,0,0,1-11.11,25.67,83.23,83.23,0,0,1-20,21.41,62.91,62.91,0,0,1-25.53,11.39,39.51,39.51,0,0,1-7.71.76,44,44,0,0,1-20.15-5.15,61,61,0,0,1-11.4-7,50.13,50.13,0,0,1-9.19-9.47,51.38,51.38,0,0,1-7.28-12.63,95.53,95.53,0,0,1-4.25-13.72A49.22,49.22,0,0,1,446.26,303a133.09,133.09,0,0,1,1.92-15.23l.27-1.65a90.16,90.16,0,0,1,5.36-15.65,85.66,85.66,0,0,1,8.37-14.68A81.84,81.84,0,0,1,473.3,243a56.43,56.43,0,0,1,13.31-9.33A55.86,55.86,0,0,1,512,227h.64M500.48,332.09a23.29,23.29,0,0,0,11.38-3.43q8-4.67,13.73-14.42a53.08,53.08,0,0,0,7.14-20.31,41.08,41.08,0,0,0-2.2-20q-3.57-9.47-14-13.59a30.43,30.43,0,0,0-12.63,2.61,33.68,33.68,0,0,0-10,6.87,43.44,43.44,0,0,0-7.41,10,64.37,64.37,0,0,0-5.08,12.08c-.55,2.93-1,5.81-1.37,8.65a33.84,33.84,0,0,0,0,8.65,36,36,0,0,0,3.43,11.53,21.91,21.91,0,0,0,6.86,8.23,17.15,17.15,0,0,0,9.75,3.16h.42M512.64,220h-.71a63.06,63.06,0,0,0-28.51,7.49,64,64,0,0,0-14.9,10.45,89.77,89.77,0,0,0-12.06,13.85,94.43,94.43,0,0,0-9,15.87,97.29,97.29,0,0,0-5.76,16.86l-.06.24,0,.25-.27,1.58a143.43,143.43,0,0,0-2,16,56.82,56.82,0,0,0,1.55,17.64,103.71,103.71,0,0,0,4.56,14.66,58.42,58.42,0,0,0,8.21,14.29A57.37,57.37,0,0,0,464,359.84a69.07,69.07,0,0,0,12.61,7.76,51.1,51.1,0,0,0,23.25,5.87,47.1,47.1,0,0,0,9.07-.89A70.38,70.38,0,0,0,537.3,360,90.4,90.4,0,0,0,559,336.75a82.86,82.86,0,0,0,12.11-28.05,85.57,85.57,0,0,0,1.94-19,144.51,144.51,0,0,0-1.59-18.61v-.18A63.68,63.68,0,0,0,560,243.35a56.92,56.92,0,0,0-21.27-17.64A60.42,60.42,0,0,0,512.64,220Zm-24.44,73.6a56.59,56.59,0,0,1,4.41-10.39,36.91,36.91,0,0,1,6.22-8.44,26.91,26.91,0,0,1,8-5.43,22.49,22.49,0,0,1,8.4-2,15.64,15.64,0,0,1,8.79,9,33.91,33.91,0,0,1,1.8,16.67,46.28,46.28,0,0,1-6.22,17.65c-3.2,5.41-7,9.42-11.19,11.91a16.63,16.63,0,0,1-7.89,2.5h-.24a10.32,10.32,0,0,1-5.87-1.86,14.81,14.81,0,0,1-4.65-5.66,29,29,0,0,1-2.76-9.31,27,27,0,0,1,0-6.84c.33-2.56.75-5.21,1.24-7.87Z"/><path class="cls-3" d="M569.7,286.11a90.12,90.12,0,0,1,5.35-15.65,87,87,0,0,1,8.37-14.68A82.36,82.36,0,0,1,594.54,243a56.63,56.63,0,0,1,13.31-9.33A55.92,55.92,0,0,1,633.24,227,53.4,53.4,0,0,1,657,232a49.84,49.84,0,0,1,18.67,15.51,56.52,56.52,0,0,1,10.15,24.57,136.18,136.18,0,0,1,1.51,17.7,77.82,77.82,0,0,1-1.78,17.43,75.49,75.49,0,0,1-11.12,25.67,82.89,82.89,0,0,1-20,21.41,62.91,62.91,0,0,1-25.53,11.39Q615,368.46,601,361.32a61,61,0,0,1-11.39-7,50.18,50.18,0,0,1-9.2-9.47,51.65,51.65,0,0,1-7.27-12.63,95.55,95.55,0,0,1-4.26-13.72A49.22,49.22,0,0,1,567.5,303a135.36,135.36,0,0,1,1.92-15.23Zm32.94,5.76q-.82,4.39-1.38,8.65a34.77,34.77,0,0,0,0,8.65,36,36,0,0,0,3.44,11.53,21.73,21.73,0,0,0,6.86,8.23,17.1,17.1,0,0,0,9.74,3.16q5.49.14,11.81-3.43,7.95-4.67,13.72-14.42A52.91,52.91,0,0,0,654,293.93a41.08,41.08,0,0,0-2.2-20q-3.57-9.47-14-13.59a30.39,30.39,0,0,0-12.62,2.61,33.42,33.42,0,0,0-10,6.87,43.44,43.44,0,0,0-7.41,10A63.72,63.72,0,0,0,602.64,291.87Z"/><path d="M633.89,227A53.17,53.17,0,0,1,657,232a49.84,49.84,0,0,1,18.67,15.51,56.57,56.57,0,0,1,10.15,24.57,136.18,136.18,0,0,1,1.51,17.7,77.82,77.82,0,0,1-1.78,17.43,75.49,75.49,0,0,1-11.12,25.67,82.89,82.89,0,0,1-20,21.41,62.91,62.91,0,0,1-25.53,11.39,39.36,39.36,0,0,1-7.71.76A44,44,0,0,1,601,361.32a61,61,0,0,1-11.39-7,50.18,50.18,0,0,1-9.2-9.47,51.65,51.65,0,0,1-7.27-12.63,95.55,95.55,0,0,1-4.26-13.72A49.22,49.22,0,0,1,567.5,303a135.36,135.36,0,0,1,1.92-15.23l.28-1.65a90.12,90.12,0,0,1,5.35-15.65,87,87,0,0,1,8.37-14.68A82.36,82.36,0,0,1,594.54,243a56.63,56.63,0,0,1,13.31-9.33A55.92,55.92,0,0,1,633.24,227h.65M621.72,332.09a23.32,23.32,0,0,0,11.39-3.43q7.95-4.67,13.72-14.42A52.91,52.91,0,0,0,654,293.93a41.08,41.08,0,0,0-2.2-20q-3.57-9.47-14-13.59a30.39,30.39,0,0,0-12.62,2.61,33.42,33.42,0,0,0-10,6.87,43.44,43.44,0,0,0-7.41,10,63.72,63.72,0,0,0-5.08,12.08q-.82,4.39-1.38,8.65a34.77,34.77,0,0,0,0,8.65,36,36,0,0,0,3.44,11.53,21.73,21.73,0,0,0,6.86,8.23,17.1,17.1,0,0,0,9.74,3.16h.42M633.89,220h-.72a63,63,0,0,0-28.5,7.49,64,64,0,0,0-14.91,10.45,90.31,90.31,0,0,0-12.06,13.85,94,94,0,0,0-9,15.87,96.49,96.49,0,0,0-5.77,16.86l-.06.24,0,.25-.26,1.58a141.11,141.11,0,0,0-2,16,56.22,56.22,0,0,0,1.55,17.64,102.4,102.4,0,0,0,4.55,14.66,58.75,58.75,0,0,0,8.21,14.29,57.68,57.68,0,0,0,10.45,10.75,69.07,69.07,0,0,0,12.61,7.76,51.13,51.13,0,0,0,23.25,5.87,47.1,47.1,0,0,0,9.07-.89A70.36,70.36,0,0,0,658.55,360a90.53,90.53,0,0,0,21.72-23.2,82.66,82.66,0,0,0,12.11-28.05,85,85,0,0,0,1.94-19,146.24,146.24,0,0,0-1.58-18.61l0-.09v-.09a63.79,63.79,0,0,0-11.44-27.56A57,57,0,0,0,660,225.71a60.38,60.38,0,0,0-26.1-5.76Zm-24.44,73.6a57.24,57.24,0,0,1,4.4-10.39,37.24,37.24,0,0,1,6.23-8.44,26.91,26.91,0,0,1,8-5.43,22.44,22.44,0,0,1,8.39-2,15.64,15.64,0,0,1,8.79,9A33.8,33.8,0,0,1,647,293a46.45,46.45,0,0,1-6.22,17.65c-3.2,5.41-7,9.42-11.2,11.91a16.6,16.6,0,0,1-7.89,2.5h-.24a10.29,10.29,0,0,1-5.86-1.86,14.92,14.92,0,0,1-4.66-5.66,29,29,0,0,1-2.75-9.31,27,27,0,0,1,0-6.84c.33-2.56.74-5.21,1.24-7.87Z"/><path class="cls-4" d="M817.76,329.75q4.66,8,3.16,14.28a15.16,15.16,0,0,1-6.18,9.47A16.75,16.75,0,0,1,803.35,356q-6.74-.69-13-7a58.52,58.52,0,0,1-13.72,7.27,139.79,139.79,0,0,1-15.1,4.53,48.45,48.45,0,0,1-23.75-.41,54.38,54.38,0,0,1-34.45-28,54.35,54.35,0,0,1-6-22.92,92.88,92.88,0,0,1,2.06-26.35,77.49,77.49,0,0,1,9.2-23.06,60.33,60.33,0,0,1,16.61-17.84,64.15,64.15,0,0,1,24.29-10.43A84.29,84.29,0,0,1,766,230.11a101.32,101.32,0,0,1,16.6,1.37c-.18-4-.32-8.65-.41-13.86s-.13-10.29-.13-15.24.18-9.37.54-13.31A42.16,42.16,0,0,1,784,180.7a15.32,15.32,0,0,1,5.9-7.55,16,16,0,0,1,8.37-2.75,16.77,16.77,0,0,1,8.65,2.2,16.6,16.6,0,0,1,6.72,7,14.15,14.15,0,0,0,1.38,2.61,4.68,4.68,0,0,1,.82,2.61q.27,36,.14,71.09t-.14,71.1C816.57,328.11,817.21,329,817.76,329.75ZM779.6,314.66a5.86,5.86,0,0,1,2.06-1.65,2.46,2.46,0,0,0,1.51-2.2V288.17q0-11.12-.27-22.65a84.11,84.11,0,0,0-13.73-1.65,49.93,49.93,0,0,0-13.86,1.38A37.35,37.35,0,0,0,743,270.74a26.13,26.13,0,0,0-8.92,11q-1.65,5.2-3,10.43a44.39,44.39,0,0,0-1.51,10.15,31.92,31.92,0,0,0,1.23,9.75,28.16,28.16,0,0,0,4.67,9.19,20.64,20.64,0,0,0,2.61,2.2c1,.73,3,2,5.9,3.84a52.28,52.28,0,0,0,19.35-1.92A35.36,35.36,0,0,0,779.6,314.66Z"/><path d="M798.75,170.4a16.86,16.86,0,0,1,8.17,2.2,16.6,16.6,0,0,1,6.72,7,14.15,14.15,0,0,0,1.38,2.61,4.68,4.68,0,0,1,.82,2.61q.27,36,.14,71.09t-.14,71.1c.73,1.1,1.37,2,1.92,2.74q4.66,8,3.16,14.28a15.16,15.16,0,0,1-6.18,9.47,15.8,15.8,0,0,1-9.07,2.59c-.75,0-1.52,0-2.32-.12q-6.74-.69-13-7a58.52,58.52,0,0,1-13.72,7.27,139.79,139.79,0,0,1-15.1,4.53,52,52,0,0,1-11.29,1.28,46.29,46.29,0,0,1-12.46-1.69,54.38,54.38,0,0,1-34.45-28,54.35,54.35,0,0,1-6-22.92,92.88,92.88,0,0,1,2.06-26.35,77.49,77.49,0,0,1,9.2-23.06,60.33,60.33,0,0,1,16.61-17.84,64.15,64.15,0,0,1,24.29-10.43A84.29,84.29,0,0,1,766,230.11a101.32,101.32,0,0,1,16.6,1.37c-.18-4-.32-8.65-.41-13.86s-.13-10.29-.13-15.24.18-9.37.54-13.31A42.16,42.16,0,0,1,784,180.7a15.32,15.32,0,0,1,5.9-7.55,15.92,15.92,0,0,1,8.37-2.74h.48M748.56,327.47a51.1,51.1,0,0,0,14.71-2.11,35.36,35.36,0,0,0,16.33-10.7,5.86,5.86,0,0,1,2.06-1.65,2.46,2.46,0,0,0,1.51-2.2V288.17q0-11.12-.27-22.65a84.11,84.11,0,0,0-13.73-1.65c-.67,0-1.34,0-2,0a49.28,49.28,0,0,0-11.85,1.42A37.35,37.35,0,0,0,743,270.74a26.13,26.13,0,0,0-8.92,11q-1.65,5.2-3,10.43a44.39,44.39,0,0,0-1.51,10.15,31.92,31.92,0,0,0,1.23,9.75,28.16,28.16,0,0,0,4.67,9.19,20.64,20.64,0,0,0,2.61,2.2c1,.73,3,2,5.9,3.84,1.56.13,3.11.19,4.64.19M798.75,163.4h-.7a23,23,0,0,0-12,3.88,22.33,22.33,0,0,0-8.59,10.88l-.06.15,0,.16a47,47,0,0,0-1.71,9.94c-.38,4.11-.57,8.8-.57,14s0,10.29.13,15.37c0,2,.08,3.92.13,5.76-3.1-.27-6.22-.4-9.32-.4a92,92,0,0,0-18,1.78h-.11a71.59,71.59,0,0,0-26.9,11.6,67.38,67.38,0,0,0-18.51,19.9,84.61,84.61,0,0,0-10,25.12,100.2,100.2,0,0,0-2.23,28.28,61.47,61.47,0,0,0,6.82,25.78,61.38,61.38,0,0,0,38.79,31.52,54.11,54.11,0,0,0,14.33,1.94,59.59,59.59,0,0,0,12.8-1.44l.07,0h.06A147.82,147.82,0,0,0,779,362.82a63.16,63.16,0,0,0,10.74-5.13,26.11,26.11,0,0,0,12.92,5.24,28.64,28.64,0,0,0,3,.16,22.75,22.75,0,0,0,13-3.79,22,22,0,0,0,9.07-13.64c1.43-6,.11-12.55-3.93-19.44l-.2-.35-.25-.33c-.16-.21-.33-.44-.51-.7,0-23.79,0-47,.14-68.9.09-23.22,0-47.16-.14-71.15a11.71,11.71,0,0,0-2-6.46,6.87,6.87,0,0,1-.69-1.31l-.14-.36-.18-.34a23.56,23.56,0,0,0-9.54-9.85,23.87,23.87,0,0,0-11.54-3.07ZM740.57,284.27a19,19,0,0,1,6.34-7.76A30.78,30.78,0,0,1,757,272.05a42.55,42.55,0,0,1,10.19-1.22c.58,0,1.17,0,1.75,0,2.41.09,4.79.29,7.11.59.1,5.71.15,11.31.15,16.71v20.08a11,11,0,0,0-2,2,28.07,28.07,0,0,1-12.9,8.42,44.28,44.28,0,0,1-12.71,1.82c-.8,0-1.61,0-2.42-.06-2.4-1.51-3.49-2.26-4-2.62a15.25,15.25,0,0,1-1.45-1.17,21.3,21.3,0,0,1-3.23-6.49,25,25,0,0,1-1-7.63,37.23,37.23,0,0,1,1.28-8.57c.84-3.19,1.77-6.44,2.78-9.66Z"/><path class="cls-5" d="M873.13,334.7a22.66,22.66,0,0,1,5.07,7,20.88,20.88,0,0,1,2.2,8.51,15.18,15.18,0,0,1-1.92,8q-2.06,3.7-7.28,5.62a18.52,18.52,0,0,1-9.05.55,33.34,33.34,0,0,1-9.75-3.29,38.45,38.45,0,0,1-8.51-5.9,21,21,0,0,1-5.35-7.55,14.67,14.67,0,0,1-.83-3.16,21.38,21.38,0,0,1-.27-3.16V188.93a14,14,0,0,1,4.8-10.7A19.6,19.6,0,0,1,852.81,173a13.83,13.83,0,0,1,5.9.83,21.74,21.74,0,0,1,5.91,3.15,19.29,19.29,0,0,1,4.53,4.81,10.48,10.48,0,0,1,1.78,5.76V206.5q0,11.81.14,25.81t.13,29q0,15-.13,28.68t-.14,25.12q0,11.39-.27,18.25Z"/><path d="M853.92,173a14.46,14.46,0,0,1,4.79.88,21.74,21.74,0,0,1,5.91,3.15,19.29,19.29,0,0,1,4.53,4.81,10.48,10.48,0,0,1,1.78,5.76V206.5q0,11.81.14,25.81t.13,29q0,15-.13,28.68t-.14,25.12q0,11.39-.27,18.25l2.47,1.38a22.59,22.59,0,0,1,5.07,7,20.8,20.8,0,0,1,2.2,8.5,15.18,15.18,0,0,1-1.92,8q-2.06,3.7-7.28,5.62a17.22,17.22,0,0,1-5.47.86,21.3,21.3,0,0,1-3.58-.31,33.34,33.34,0,0,1-9.75-3.29,38.45,38.45,0,0,1-8.51-5.9,21,21,0,0,1-5.35-7.55,14.67,14.67,0,0,1-.83-3.16,21.38,21.38,0,0,1-.27-3.16V188.93a14,14,0,0,1,4.8-10.7A19.6,19.6,0,0,1,852.81,173c.36,0,.73,0,1.11,0m0-7a17.58,17.58,0,0,0-1.79.09H852l-.15,0a26.59,26.59,0,0,0-14.3,7,21.06,21.06,0,0,0-7.08,15.87V341.28a27.54,27.54,0,0,0,.36,4.23,20.82,20.82,0,0,0,1.25,4.71,28,28,0,0,0,7.08,10.06,45.29,45.29,0,0,0,10.07,7,40.27,40.27,0,0,0,11.79,4,29.93,29.93,0,0,0,4.74.4,24.24,24.24,0,0,0,7.69-1.22l.1,0,.11,0c5.08-1.87,8.77-4.83,11-8.79A22.1,22.1,0,0,0,887.4,350a28.12,28.12,0,0,0-2.89-11.33,29.79,29.79,0,0,0-6.67-9.13l-.06,0c.1-4,.15-8.86.15-14.4,0-7.81.05-16.24.14-25.05.09-9.28.13-19,.13-28.75s0-19.56-.13-29c-.09-9-.14-17.65-.14-25.74V187.56A17.38,17.38,0,0,0,875,178a25.87,25.87,0,0,0-6.2-6.59,28.79,28.79,0,0,0-7.8-4.17,21.53,21.53,0,0,0-7.1-1.27Z"/><path class="cls-6" d="M983.12,314.93a22,22,0,0,1,11.67-.14,15,15,0,0,1,7.82,5.08,12.84,12.84,0,0,1,2.47,8.79q-.27,5.2-4.66,11a29.32,29.32,0,0,1-9.89,8,90.75,90.75,0,0,1-11.8,5.21,136.17,136.17,0,0,1-25.53,6.86,67.21,67.21,0,0,1-22.65,0,52.87,52.87,0,0,1-19.76-8,67,67,0,0,1-17.16-17,50.55,50.55,0,0,1-8.09-16.89,80.34,80.34,0,0,1-2.89-19.35A87,87,0,0,1,884.3,279a76.57,76.57,0,0,1,5.49-17.29q4.66-9.62,14.82-17.57a85.11,85.11,0,0,1,22.51-12.63,83.76,83.76,0,0,1,25.26-5.35q12.9-.69,22.78,4a39.62,39.62,0,0,1,14.14,11.12A41.39,41.39,0,0,1,997.4,257a37.54,37.54,0,0,1,.41,17.16A31.13,31.13,0,0,1,988.89,290a60.76,60.76,0,0,1-15.1,11.12,139.86,139.86,0,0,1-17,7.41,167.7,167.7,0,0,1-18,5.35q-9.19,2.21-17.71,4.94a25.27,25.27,0,0,0,13.18,8.38,41.59,41.59,0,0,0,15.51.68,65.08,65.08,0,0,0,16.33-4.53,131.52,131.52,0,0,0,15.37-7.55Zm-55.45-47.21a23.73,23.73,0,0,0-9.33,8.92q-3,5.36-4.39,15,7.13-2.19,16.06-4.67t16.88-5.21a72.59,72.59,0,0,0,13.45-6q5.49-3.3,5.49-7.14a13.28,13.28,0,0,0-.69-4.25,4.53,4.53,0,0,0-2.88-2.89,29.54,29.54,0,0,0-15.92-1.1A48.33,48.33,0,0,0,932.61,265Z"/><path d="M955.62,226a45.29,45.29,0,0,1,19.54,4.07,39.62,39.62,0,0,1,14.14,11.12A41.39,41.39,0,0,1,997.4,257a37.54,37.54,0,0,1,.41,17.16A31.13,31.13,0,0,1,988.89,290a60.76,60.76,0,0,1-15.1,11.12,139.86,139.86,0,0,1-17,7.41,167.7,167.7,0,0,1-18,5.35q-9.19,2.21-17.71,4.94a25.27,25.27,0,0,0,13.18,8.38,40.48,40.48,0,0,0,9.43,1.1,45.15,45.15,0,0,0,6.08-.42,65,65,0,0,0,16.33-4.53,131.52,131.52,0,0,0,15.37-7.55l1.65-.82a26.8,26.8,0,0,1,6.46-.86,18.27,18.27,0,0,1,5.21.72,15,15,0,0,1,7.82,5.08,12.84,12.84,0,0,1,2.47,8.79q-.27,5.2-4.66,11a29.32,29.32,0,0,1-9.89,8,90.75,90.75,0,0,1-11.8,5.21,137,137,0,0,1-25.53,6.87,75.77,75.77,0,0,1-11.7.95,62.13,62.13,0,0,1-11-.95,53.05,53.05,0,0,1-19.76-8,67,67,0,0,1-17.16-17,50.55,50.55,0,0,1-8.09-16.89,80.34,80.34,0,0,1-2.89-19.35A87,87,0,0,1,884.3,279a76.57,76.57,0,0,1,5.49-17.29q4.66-9.62,14.82-17.57a85.11,85.11,0,0,1,22.51-12.63,83.76,83.76,0,0,1,25.26-5.35q1.65-.09,3.24-.09M914,291.6q7.13-2.19,16.06-4.67t16.88-5.21a72.59,72.59,0,0,0,13.45-6q5.49-3.3,5.49-7.14a13.38,13.38,0,0,0-.69-4.26,4.54,4.54,0,0,0-2.88-2.88,29.14,29.14,0,0,0-9.83-1.71,31.13,31.13,0,0,0-6.09.61A48.33,48.33,0,0,0,932.61,265l-4.94,2.75a23.73,23.73,0,0,0-9.33,8.92q-3,5.36-4.39,15M955.62,219c-1.18,0-2.4,0-3.61.1a90.9,90.9,0,0,0-27.36,5.79A92.61,92.61,0,0,0,900.3,238.6c-7.59,6-13.24,12.68-16.81,20l0,.05,0,.06a84.16,84.16,0,0,0-6,18.87,93.92,93.92,0,0,0-1.78,21.06,87.56,87.56,0,0,0,3.13,21,57.59,57.59,0,0,0,9.2,19.16,74.31,74.31,0,0,0,19,18.74,60.14,60.14,0,0,0,22.35,9,68.61,68.61,0,0,0,12.2,1.07,82.46,82.46,0,0,0,12.8-1,144.52,144.52,0,0,0,26.79-7.19,97.36,97.36,0,0,0,12.68-5.6,36.21,36.21,0,0,0,12.21-9.91c3.78-5,5.83-10,6.09-14.86a19.67,19.67,0,0,0-3.91-13.42,21.74,21.74,0,0,0-11.38-7.53,25.36,25.36,0,0,0-7.2-1,33.78,33.78,0,0,0-8.16,1.07l-.74.19-.69.34-1.65.82-.18.1-.18.1a127.3,127.3,0,0,1-14.57,7.15,58.33,58.33,0,0,1-14.58,4.06,39.41,39.41,0,0,1-5.14.35,34.43,34.43,0,0,1-4.55-.3l1.28-.31a177.64,177.64,0,0,0,18.72-5.57A148.55,148.55,0,0,0,977,307.29a68,68,0,0,0,16.84-12.39,38.08,38.08,0,0,0,10.82-19.32,44.56,44.56,0,0,0-.49-20.32,48.35,48.35,0,0,0-9.44-18.44,46.67,46.67,0,0,0-16.61-13,52.34,52.34,0,0,0-22.5-4.73Zm-24.53,54.78,4.92-2.73a41.62,41.62,0,0,1,11.7-3.92,24.08,24.08,0,0,1,4.72-.48,22,22,0,0,1,6.33.93,3.75,3.75,0,0,1,0,.47,8.58,8.58,0,0,1-2.07,1.58,65.08,65.08,0,0,1-12.13,5.43c-5.13,1.77-10.67,3.48-16.47,5.09l-4.38,1.22c.22-.47.44-.92.67-1.33a16.88,16.88,0,0,1,6.66-6.26Z"/><path class="cls-1" d="M1013.22,334a24.14,24.14,0,0,1-1.42-9.48,19.73,19.73,0,0,1,2.41-8.49,14.8,14.8,0,0,1,6.09-5.95,16.54,16.54,0,0,1,9.62-1.55,14.26,14.26,0,0,1,5.66,1.69,24.06,24.06,0,0,1,4.67,3.4q2.12,2,4.25,4.25a35.07,35.07,0,0,0,14.57,9.34,70.27,70.27,0,0,0,11.32,2.54,9.65,9.65,0,0,0,6.37-2A9.77,9.77,0,0,0,1080,323a14.58,14.58,0,0,0,.42-6.08,9.8,9.8,0,0,0-2.12-5.24,22.68,22.68,0,0,0-11.75-6.23,111,111,0,0,1-12.88-3.39,107.72,107.72,0,0,1-16.7-7.22,36.23,36.23,0,0,1-13.3-12,37,37,0,0,1-6.37-16.84,44.93,44.93,0,0,1,1.42-17.41,43.61,43.61,0,0,1,8.07-15.56,47.23,47.23,0,0,1,13.58-11.61,36.29,36.29,0,0,1,13-4.39,66.19,66.19,0,0,1,14.29-.42,68,68,0,0,1,14.3,2.69,122,122,0,0,1,13,4.67,22.36,22.36,0,0,1,10.19,8.77,21.13,21.13,0,0,1,3.25,11.47,15.09,15.09,0,0,1-4,10q-3.82,4.25-11.18,4.25a20.83,20.83,0,0,1-8.21-1.56q-3.67-1.55-7.64-3a45.52,45.52,0,0,0-11-2.69q-5.94-.7-9.62.71a5.63,5.63,0,0,0-2.55,1.84,9.93,9.93,0,0,0-2.12,3.82,9.2,9.2,0,0,0-.29,4.53,5.39,5.39,0,0,0,3,3.68,64,64,0,0,0,14.43,5.66q7.65,2,15,4.53a68.19,68.19,0,0,1,13.73,6.51,31.45,31.45,0,0,1,10.61,11.32,45.47,45.47,0,0,1,6.37,22.5,49.37,49.37,0,0,1-4.67,21.94,47.34,47.34,0,0,1-14.15,17.4,42.9,42.9,0,0,1-21.79,8.64,55.8,55.8,0,0,1-17.27-1,66.29,66.29,0,0,1-16.42-5.94,81.85,81.85,0,0,1-14.71-9.76,89,89,0,0,1-11.89-11.89Z"/><path d="M1062.48,216.38c1.73,0,3.48.06,5.22.2a68,68,0,0,1,14.3,2.69,122,122,0,0,1,13,4.67,22.36,22.36,0,0,1,10.19,8.77,21.13,21.13,0,0,1,3.25,11.47,15.09,15.09,0,0,1-4,10q-3.82,4.25-11.18,4.25a20.83,20.83,0,0,1-8.21-1.56q-3.67-1.55-7.64-3a45.06,45.06,0,0,0-11-2.69,33.07,33.07,0,0,0-3.71-.23,16.43,16.43,0,0,0-5.91.94,5.63,5.63,0,0,0-2.55,1.84,9.93,9.93,0,0,0-2.12,3.82,9.2,9.2,0,0,0-.29,4.53,5.39,5.39,0,0,0,3,3.68,64,64,0,0,0,14.43,5.66q7.65,2,15,4.53a68.19,68.19,0,0,1,13.73,6.51,31.45,31.45,0,0,1,10.61,11.32,45.47,45.47,0,0,1,6.37,22.5,49.37,49.37,0,0,1-4.67,21.94,47.34,47.34,0,0,1-14.15,17.4,42.9,42.9,0,0,1-21.79,8.64c-1.85.17-3.69.26-5.51.26a55.35,55.35,0,0,1-11.76-1.26,66.29,66.29,0,0,1-16.42-5.94,81.85,81.85,0,0,1-14.71-9.76,89,89,0,0,1-11.89-11.89l-.85-1.7a24,24,0,0,1-1.42-9.48,19.73,19.73,0,0,1,2.41-8.49,14.8,14.8,0,0,1,6.09-5.95,15.31,15.31,0,0,1,7.31-1.67,23.08,23.08,0,0,1,2.31.12,14.26,14.26,0,0,1,5.66,1.69,24.06,24.06,0,0,1,4.67,3.4q2.12,2,4.25,4.25a35.07,35.07,0,0,0,14.57,9.34,70.27,70.27,0,0,0,11.32,2.54,9.65,9.65,0,0,0,6.37-2A9.77,9.77,0,0,0,1080,323a14.58,14.58,0,0,0,.42-6.08,9.8,9.8,0,0,0-2.12-5.24,22.68,22.68,0,0,0-11.75-6.23,111,111,0,0,1-12.88-3.39,107.72,107.72,0,0,1-16.7-7.22,36.23,36.23,0,0,1-13.3-12,37,37,0,0,1-6.37-16.84,44.93,44.93,0,0,1,1.42-17.41,43.69,43.69,0,0,1,8.07-15.56,47.23,47.23,0,0,1,13.58-11.61,36.29,36.29,0,0,1,13-4.39,65.4,65.4,0,0,1,9.07-.62m0-7a73.21,73.21,0,0,0-10,.69,43.35,43.35,0,0,0-15.52,5.24,54.64,54.64,0,0,0-15.58,13.31,50.89,50.89,0,0,0-9.34,18,52.25,52.25,0,0,0-1.63,20.09,43.9,43.9,0,0,0,7.52,20A43.23,43.23,0,0,0,1033.7,301a114.23,114.23,0,0,0,17.78,7.69,118.33,118.33,0,0,0,13.69,3.61,15.77,15.77,0,0,1,7.92,4,4.28,4.28,0,0,1,.41,1.47,7.47,7.47,0,0,1-.19,3.17,2.77,2.77,0,0,1-1,1.42,2.85,2.85,0,0,1-1.48.37,63.57,63.57,0,0,1-9.65-2.21,26,26,0,0,1-8-4.26l0,0,0,0a25.59,25.59,0,0,1-3.47-3.14c-1.53-1.62-3.06-3.15-4.58-4.57a31,31,0,0,0-6-4.4,21.27,21.27,0,0,0-8.4-2.55c-1-.1-2-.15-3-.15A22.26,22.26,0,0,0,1017,304a21.74,21.74,0,0,0-8.9,8.72,26.65,26.65,0,0,0-3.27,11.47,30.9,30.9,0,0,0,1.8,12.23l.14.41.2.39.85,1.7.35.7.49.6A94.8,94.8,0,0,0,1021.48,353a88.53,88.53,0,0,0,16,10.61,73.22,73.22,0,0,0,18.14,6.56,62.21,62.21,0,0,0,13.25,1.42c2,0,4.12-.1,6.18-.3h.12a49.91,49.91,0,0,0,25.28-10,54.6,54.6,0,0,0,16.2-20,56.47,56.47,0,0,0,5.34-25,52.55,52.55,0,0,0-7.31-25.93,38.55,38.55,0,0,0-13-13.75,75,75,0,0,0-15.14-7.19c-5-1.75-10.28-3.32-15.53-4.69a57,57,0,0,1-12.27-4.72,1.64,1.64,0,0,1,.07-.28,3.06,3.06,0,0,1,.62-1.2l.08-.09a10.32,10.32,0,0,1,3.2-.4,25.42,25.42,0,0,1,2.89.18,38,38,0,0,1,9.33,2.27l.08,0,.09,0c2.51.9,5,1.85,7.28,2.83a27.77,27.77,0,0,0,10.93,2.11c7,0,12.46-2.21,16.38-6.56a22,22,0,0,0,5.76-14.56,28.13,28.13,0,0,0-4.25-15.24,29.32,29.32,0,0,0-13.27-11.53l-.08,0-.09,0a130.47,130.47,0,0,0-13.76-4.94,76.32,76.32,0,0,0-15.75-3c-1.93-.15-3.87-.22-5.78-.22Z"/></g></svg>