<?xml version="1.0" encoding="UTF-8"?>
<svg width="512px" height="512px" viewBox="0 0 512 512" version="1.1" xmlns="http://www.w3.org/2000/svg" xmlns:xlink="http://www.w3.org/1999/xlink">
    <title>Bleeps/Logo</title>
    <g id="Symbols" stroke="none" stroke-width="1" fill="none" fill-rule="evenodd">
        <g id="Bleeps/Logo" fill="#DAB894">
            <path d="M265.94,404 C267.092,404 268.214,403.856 269.306,403.568 C270.398,403.28 271.37,402.836 272.222,402.236 C273.074,401.636 273.752,400.862 274.256,399.914 C274.76,398.966 275.012,397.844 275.012,396.548 C275.012,394.94 274.622,393.566 273.842,392.426 C273.062,391.286 271.88,390.488 270.296,390.032 C271.448,389.48 272.318,388.772 272.906,387.908 C273.494,387.044 273.788,385.964 273.788,384.668 C273.788,383.468 273.59,382.46 273.194,381.644 C272.798,380.828 272.24,380.174 271.52,379.682 C270.8,379.19 269.936,378.836 268.928,378.62 C267.92,378.404 266.804,378.296 265.58,378.296 L253.484,378.296 L253.484,404 L265.94,404 Z M264.86,388.7 L259.136,388.7 L259.136,382.688 L264.428,382.688 C264.932,382.688 265.418,382.73 265.886,382.814 C266.354,382.898 266.768,383.048 267.128,383.264 C267.488,383.48 267.776,383.78 267.992,384.164 C268.208,384.548 268.316,385.04 268.316,385.64 C268.316,386.72 267.992,387.5 267.344,387.98 C266.696,388.46 265.868,388.7 264.86,388.7 Z M265.184,399.608 L259.136,399.608 L259.136,392.552 L265.292,392.552 C266.516,392.552 267.5,392.834 268.244,393.398 C268.988,393.962 269.36,394.904 269.36,396.224 C269.36,396.896 269.246,397.448 269.018,397.88 C268.79,398.312 268.484,398.654 268.1,398.906 C267.716,399.158 267.272,399.338 266.768,399.446 C266.264,399.554 265.736,399.608 265.184,399.608 Z M311.008,404 L311.008,399.248 L298.48,399.248 L298.48,378.296 L292.828,378.296 L292.828,404 L311.008,404 Z M347.688,404 L347.688,399.248 L333.828,399.248 L333.828,392.948 L346.284,392.948 L346.284,388.556 L333.828,388.556 L333.828,383.048 L347.4,383.048 L347.4,378.296 L328.176,378.296 L328.176,404 L347.688,404 Z M385.016,404 L385.016,399.248 L371.156,399.248 L371.156,392.948 L383.612,392.948 L383.612,388.556 L371.156,388.556 L371.156,383.048 L384.728,383.048 L384.728,378.296 L365.504,378.296 L365.504,404 L385.016,404 Z M408.484,404 L408.484,394.784 L414.424,394.784 C416.032,394.784 417.4,394.55 418.528,394.082 C419.656,393.614 420.574,392.996 421.282,392.228 C421.99,391.46 422.506,390.578 422.83,389.582 C423.154,388.586 423.316,387.572 423.316,386.54 C423.316,385.484 423.154,384.464 422.83,383.48 C422.506,382.496 421.99,381.62 421.282,380.852 C420.574,380.084 419.656,379.466 418.528,378.998 C417.4,378.53 416.032,378.296 414.424,378.296 L402.832,378.296 L402.832,404 L408.484,404 Z M412.876,390.392 L408.484,390.392 L408.484,382.688 L412.876,382.688 C413.524,382.688 414.148,382.736 414.748,382.832 C415.348,382.928 415.876,383.114 416.332,383.39 C416.788,383.666 417.154,384.056 417.43,384.56 C417.706,385.064 417.844,385.724 417.844,386.54 C417.844,387.356 417.706,388.016 417.43,388.52 C417.154,389.024 416.788,389.414 416.332,389.69 C415.876,389.966 415.348,390.152 414.748,390.248 C414.148,390.344 413.524,390.392 412.876,390.392 Z M450.168,404.576 C451.92,404.576 453.462,404.372 454.794,403.964 C456.126,403.556 457.242,402.986 458.142,402.254 C459.042,401.522 459.72,400.652 460.176,399.644 C460.632,398.636 460.86,397.544 460.86,396.368 C460.86,394.928 460.554,393.746 459.942,392.822 C459.33,391.898 458.604,391.16 457.764,390.608 C456.924,390.056 456.078,389.654 455.226,389.402 C454.374,389.15 453.708,388.976 453.228,388.88 C451.62,388.472 450.318,388.136 449.322,387.872 C448.326,387.608 447.546,387.344 446.982,387.08 C446.418,386.816 446.04,386.528 445.848,386.216 C445.656,385.904 445.56,385.496 445.56,384.992 C445.56,384.44 445.68,383.984 445.92,383.624 C446.16,383.264 446.466,382.964 446.838,382.724 C447.21,382.484 447.624,382.316 448.08,382.22 C448.536,382.124 448.992,382.076 449.448,382.076 C450.144,382.076 450.786,382.136 451.374,382.256 C451.962,382.376 452.484,382.58 452.94,382.868 C453.396,383.156 453.762,383.552 454.038,384.056 C454.314,384.56 454.476,385.196 454.524,385.964 L459.996,385.964 C459.996,384.476 459.714,383.21 459.15,382.166 C458.586,381.122 457.824,380.264 456.864,379.592 C455.904,378.92 454.806,378.434 453.57,378.134 C452.334,377.834 451.044,377.684 449.7,377.684 C448.548,377.684 447.396,377.84 446.244,378.152 C445.092,378.464 444.06,378.944 443.148,379.592 C442.236,380.24 441.498,381.05 440.934,382.022 C440.37,382.994 440.088,384.14 440.088,385.46 C440.088,386.636 440.31,387.638 440.754,388.466 C441.198,389.294 441.78,389.984 442.5,390.536 C443.22,391.088 444.036,391.538 444.948,391.886 C445.86,392.234 446.796,392.528 447.756,392.768 C448.692,393.032 449.616,393.272 450.528,393.488 C451.44,393.704 452.256,393.956 452.976,394.244 C453.696,394.532 454.278,394.892 454.722,395.324 C455.166,395.756 455.388,396.32 455.388,397.016 C455.388,397.664 455.22,398.198 454.884,398.618 C454.548,399.038 454.128,399.368 453.624,399.608 C453.12,399.848 452.58,400.01 452.004,400.094 C451.428,400.178 450.888,400.22 450.384,400.22 C449.64,400.22 448.92,400.13 448.224,399.95 C447.528,399.77 446.922,399.494 446.406,399.122 C445.89,398.75 445.476,398.264 445.164,397.664 C444.852,397.064 444.696,396.332 444.696,395.468 L439.224,395.468 C439.2,397.052 439.488,398.42 440.088,399.572 C440.688,400.724 441.498,401.672 442.518,402.416 C443.538,403.16 444.714,403.706 446.046,404.054 C447.378,404.402 448.752,404.576 450.168,404.576 Z" id="BLEEPS" fill-rule="nonzero"></path>
            <g id="Group" transform="translate(251.000000, 143.000000)">
                <rect id="Rectangle" x="0" y="70" width="20" height="80" rx="10"></rect>
                <rect id="Rectangle" x="38" y="24" width="20" height="172" rx="10"></rect>
                <rect id="Rectangle" x="76" y="60" width="20" height="100" rx="10"></rect>
                <rect id="Rectangle" x="114" y="60" width="20" height="100" rx="10"></rect>
                <rect id="Rectangle" x="152" y="0" width="20" height="220" rx="10"></rect>
                <rect id="Rectangle" x="190" y="35" width="20" height="150" rx="10"></rect>
            </g>
            <polygon id="Triangle" points="123 132 195.213333 251.090178 123 293.729748 51 251.090178"></polygon>
            <polygon id="Triangle" transform="translate(123.106667, 315.344627) scale(1, -1) translate(-123.106667, -315.344627) " points="123 264.959506 195.213333 365.729748 123.106667 323.456285 51 365.729748"></polygon>
        </g>
    </g>
</svg>