<svg width="32" height="28" viewBox="0 0 32 28" fill="none" xmlns="http://www.w3.org/2000/svg">
<g clip-path="url(#clip0_280_95125)">
<path d="M29.4199 18.1745C29.525 18.2587 29.5941 18.3314 29.6975 18.4177C29.7602 18.47 29.7607 18.47 29.8222 18.413C29.8649 18.3732 29.9065 18.3315 29.9503 18.2925C30.1272 18.1335 30.3652 18.1412 30.5299 18.3143C30.5954 18.3838 30.6572 18.4571 30.7149 18.5339C30.8573 18.7225 30.8431 18.969 30.6824 19.1407C30.6372 19.1888 30.5893 19.2344 30.5405 19.2784C30.5 19.3148 30.4986 19.3504 30.5274 19.3962C30.5868 19.4904 30.6444 19.5859 30.7002 19.6827C30.771 19.8051 30.834 19.9326 30.8938 20.0613C30.9507 20.1839 30.9507 20.1831 31.0688 20.1435C31.1259 20.1226 31.1841 20.1052 31.2431 20.0914C31.4353 20.0521 31.6175 20.1509 31.6995 20.3413C31.7493 20.4587 31.7865 20.5817 31.8104 20.7079C31.8458 20.8878 31.7424 21.0874 31.5772 21.176C31.5131 21.2101 31.4428 21.225 31.3759 21.2504C31.295 21.2813 31.2879 21.2875 31.3012 21.3715C31.3439 21.6366 31.374 21.9028 31.3759 22.1721C31.3765 22.2308 31.3973 22.2643 31.4552 22.2694C31.5047 22.2737 31.5539 22.2835 31.6033 22.289C31.8 22.3107 31.9339 22.4148 31.9922 22.6202C31.9972 22.638 32.0101 23.0084 31.9929 23.1087C31.9551 23.3303 31.7928 23.4882 31.5793 23.4972C31.5332 23.4994 31.4871 23.4963 31.4416 23.4879C31.3575 23.4716 31.3017 23.5092 31.2814 23.5956C31.2313 23.808 31.1639 24.0143 31.0916 24.219C31.0703 24.2782 31.0826 24.3301 31.1289 24.3717C31.1532 24.3935 31.2464 24.5003 31.2614 24.5358C31.2961 24.6174 31.1464 24.4904 31.1119 24.4693C31.0327 24.4209 30.0631 23.8516 29.7021 23.6474C29.728 23.4445 29.8212 23.1849 29.8588 22.9848C30.0502 21.9653 29.8522 21.0354 29.2982 20.1863C28.8374 19.4802 28.2064 19.0285 27.4315 18.8045C26.7495 18.6072 26.0735 18.6473 25.4103 18.9048C24.8617 19.1179 24.2609 19.4673 23.9313 20.0173C23.8935 20.0621 23.8757 20.057 23.816 20.0287C23.6097 19.9193 22.8014 19.3596 22.4727 19.1562C22.3271 19.0007 22.2307 18.7464 22.3401 18.5586C22.4182 18.4247 22.523 18.3161 22.6356 18.2185C22.7938 18.0815 23.0231 18.0853 23.191 18.2142C23.3993 18.3739 23.3991 18.3732 23.6016 18.2015C23.7073 18.1118 23.8199 18.0323 23.9309 17.9504C24.0342 17.8742 24.0419 17.8435 23.9934 17.724C23.8614 17.3982 23.9461 17.1505 24.2437 16.9894C24.3224 16.945 24.4046 16.9079 24.4894 16.8788C24.7165 16.8052 24.926 16.8914 25.0494 17.1067C25.1782 17.3311 25.1776 17.3308 25.42 17.2715C25.5482 17.24 25.6782 17.2178 25.8075 17.1927C25.9368 17.1676 25.9565 17.1459 25.9639 17.0098C25.9668 16.9417 25.9765 16.8742 25.9928 16.8084C26.027 16.6768 26.0889 16.5614 26.2171 16.5096C26.4616 16.4105 26.7084 16.3916 26.9483 16.5218C27.0898 16.5985 27.1558 16.7305 27.1576 16.9016C27.1603 17.158 27.162 17.1602 27.3975 17.2007C27.5522 17.2274 27.7039 17.2672 27.8561 17.3054C27.9715 17.3343 28.0013 17.323 28.0464 17.2046C28.1602 16.9051 28.4434 16.7524 28.7773 16.9267C28.8721 16.9763 28.9714 17.0124 29.0542 17.0921C29.2211 17.253 29.2329 17.4905 29.1642 17.6638C29.1545 17.6882 29.1428 17.7115 29.1333 17.736C29.0876 17.8563 29.0827 17.9267 29.0827 17.9267C29.0827 17.9267 29.3164 18.0915 29.4199 18.1745Z" fill="#5F5F5F"/>
<path d="M29.6478 23.5492C29.7449 23.648 31.042 24.4024 31.1537 24.4736C31.187 24.4782 31.2126 24.5016 31.2427 24.5145L31.241 24.5134C31.2642 24.5356 31.2863 24.559 31.3073 24.5836L31.3061 24.582C31.4088 24.7349 31.4082 24.8979 31.3488 25.0667C31.3111 25.1564 31.2657 25.2422 31.2133 25.3231C31.0912 25.5186 30.8659 25.58 30.6677 25.4739C30.6075 25.4416 30.5491 25.4057 30.4918 25.3671C30.4503 25.3395 30.4217 25.3469 30.3925 25.3879C30.2338 25.6111 30.0573 25.8194 29.8651 26.0106C29.8264 26.049 29.8218 26.0827 29.8544 26.1272C29.8919 26.1775 29.9269 26.2301 29.9605 26.2834C30.0974 26.4992 30.0606 26.7482 29.8669 26.9082C29.7995 26.9637 29.7308 27.0177 29.6593 27.0672C29.4671 27.1999 29.2417 27.1625 29.0953 26.9748C29.0548 26.9221 29.0169 26.8672 28.9817 26.8104C28.9505 26.7606 28.9192 26.7493 28.867 26.781C28.6472 26.914 28.4151 27.0189 28.1781 27.1119C28.0919 27.146 28.0926 27.1472 28.1095 27.243C28.1155 27.2764 28.1202 27.3101 28.1263 27.3434C28.1814 27.6242 28.1185 27.7763 27.8875 27.9204C27.8278 27.9556 27.7593 27.9501 27.6952 27.9681C27.5837 27.9965 27.4709 27.9942 27.3573 27.9882H27.3568C27.3196 27.9686 27.2831 27.9476 27.2467 27.9264C27.1374 27.8295 27.0886 27.7019 27.0603 27.5556C27.0218 27.3575 27.0452 27.3896 26.8736 27.3981C26.6462 27.4095 26.4184 27.4085 26.1911 27.3951C26.1029 27.3898 26.1027 27.3895 26.0824 27.4764C26.073 27.5169 26.0623 27.5571 26.0566 27.5982C26.0197 27.8577 25.8231 28.0526 25.5097 27.9891C25.4331 27.9734 25.3571 27.9524 25.2821 27.9289C25.0679 27.862 24.944 27.6423 24.987 27.4088C24.9976 27.3495 25.0107 27.2906 25.0216 27.2312C25.0363 27.1504 25.0353 27.1462 24.9591 27.1157C24.8125 27.0572 24.6667 26.9974 24.5257 26.9251C24.4424 26.8824 24.36 26.8378 24.2779 26.7927C24.1925 26.746 24.193 26.7453 24.1333 26.8304C24.1012 26.8758 24.0713 26.9228 24.0381 26.9667C23.892 27.1614 23.6615 27.2023 23.4668 27.0661C23.3926 27.0142 23.3203 26.9586 23.2507 26.9C23.073 26.7501 23.0347 26.5039 23.1568 26.3005C23.1931 26.2401 23.2335 26.1823 23.2743 26.1251C23.3026 26.0855 23.3044 26.0538 23.268 26.0173C23.0732 25.8234 22.8946 25.612 22.734 25.3854C22.7035 25.3422 22.6735 25.3424 22.634 25.3688C22.5858 25.4009 22.536 25.4304 22.486 25.4597C22.2617 25.5895 22.028 25.5254 21.8963 25.292C21.8492 25.2084 21.7915 25.1317 21.7592 25.0379C21.6789 24.8056 21.7466 24.5903 21.9472 24.4608C21.9899 24.4333 22.0335 24.4079 22.0753 24.3802C22.1493 24.3321 22.1513 24.3307 22.1186 24.2465C22.0507 24.0718 21.9924 23.893 21.9438 23.7111C21.9225 23.6316 21.9022 23.5507 21.8845 23.4699C21.8716 23.4108 21.8426 23.388 21.7855 23.4007C21.74 23.4096 21.6941 23.416 21.648 23.42C21.3767 23.4504 21.1756 23.2776 21.1473 22.9899C21.1395 22.9104 21.1312 22.8319 21.126 22.7527C21.1187 22.6381 21.153 22.525 21.2219 22.4366C21.2908 22.3481 21.389 22.2913 21.4962 22.2776C21.5562 22.2698 21.6165 22.2648 21.6761 22.2549C21.7538 22.2413 21.7564 22.2396 21.7576 22.1532C21.7611 21.9642 21.7747 21.7756 21.7982 21.5882C21.808 21.5058 21.8339 21.4257 21.8283 21.3413C21.8224 21.2836 21.7993 21.2478 21.7558 21.2298C21.7259 21.2206 21.7188 21.2166 21.6743 21.2048C21.5865 21.1821 21.5068 21.1416 21.4433 21.0732" fill="#414141"/>
<path d="M21.8329 21.3925C21.8429 21.3347 21.8195 21.2477 21.7637 21.2311C21.7157 21.2168 21.639 21.1862 21.5914 21.171C21.4021 21.1102 21.2833 20.9513 21.2625 20.7378C21.2384 20.647 21.3137 20.353 21.3479 20.2577C21.4244 20.0476 21.6118 19.9252 21.8231 19.9591C21.8687 19.9662 21.9135 19.9785 21.9566 19.9959C22.0363 20.0289 22.0978 20.003 22.133 19.9223C22.2199 19.7237 22.35 19.527 22.4336 19.3272C22.5146 19.1341 22.4572 19.1501 22.4856 19.1568C22.5548 19.2202 23.5648 19.7425 23.8832 20.0156C23.6757 20.2541 23.215 21.3345 23.1958 21.6958" fill="#414141"/>
<path d="M23.8945 19.9982C24.5392 19.2569 25.0006 18.9387 25.6371 18.7464C26.0244 18.6284 26.4285 18.5856 26.83 18.6198C27.5058 18.6777 28.116 18.9286 28.6534 19.3722C29.1272 19.7636 29.4723 20.2593 29.7077 20.8439C29.8518 21.2015 29.9278 21.5753 29.9634 21.9628C30.0143 22.5175 29.9026 23.1373 29.7236 23.6544C29.6874 23.6885 29.028 23.2084 28.9574 23.1149C28.9413 23.0644 28.9613 23.0182 28.9733 22.9714C29.0382 22.7188 29.0801 22.4621 29.0727 22.1996C29.0372 20.9379 28.2289 19.8972 27.1111 19.6429C26.2862 19.4553 25.4115 19.6446 24.6108 20.5102C24.5906 20.5222 24.5843 20.4962 24.4484 20.3966C24.2201 20.2489 24.1078 20.1563 23.9518 20.0558C23.8624 20.0003 23.8669 20.0302 23.8945 19.9982Z" fill="#414141"/>
<path d="M29.7373 23.6183C29.7158 23.6546 29.6964 23.6923 29.6792 23.7312C29.4825 24.2352 29.1676 24.6489 28.7841 24.9994C28.2821 25.4582 27.6998 25.7444 27.0388 25.8363C26.8769 25.859 26.7146 25.8836 26.5508 25.8782C26.0776 25.8622 25.6202 25.7695 25.1831 25.567C24.9059 25.4378 24.6464 25.2693 24.4117 25.0661C24.0463 24.7517 23.7495 24.374 23.5316 23.9264C23.3313 23.5141 23.2161 23.078 23.1672 22.6184C23.1244 22.2228 23.158 21.8345 23.2358 21.4473C23.3249 21.0055 23.4911 20.5984 23.7231 20.2211C23.7561 20.1675 23.8521 20.0457 23.8833 20.0151C24.0518 20.1083 24.5119 20.4314 24.5857 20.5016C24.6322 20.5662 24.5463 20.6513 24.5197 20.6928C24.3783 20.9126 24.2618 21.1446 24.1869 21.3997C23.9259 22.2881 24.0455 23.115 24.5714 23.8584C25.0101 24.4787 25.6068 24.8187 26.3364 24.8966C27.3758 25.0076 28.4425 24.3799 28.8815 23.2721C28.9057 23.211 28.8996 23.1144 28.9983 23.1097C29.0618 23.1872 29.6627 23.5747 29.7373 23.6183Z" fill="#5F5F5F"/>
<path d="M28.9967 23.1095C28.9139 23.3352 28.8214 23.5552 28.6917 23.7561C28.2807 24.3922 27.7198 24.787 27.0056 24.923C26.2822 25.0606 25.62 24.8889 25.0314 24.4261C24.5135 24.0188 24.1831 23.4709 24.0555 22.8C23.9048 22.007 24.0631 21.2772 24.5046 20.6177C24.5211 20.593 24.5366 20.5681 24.5532 20.5434C24.5699 20.5222 24.7893 20.2646 24.8961 20.1694C25.3694 19.7477 25.9108 19.5315 26.5297 19.519C27.6891 19.4956 28.735 20.3305 29.0366 21.5435C29.1573 22.029 29.1541 22.5157 29.0228 22.9998C29.013 23.0357 29.0053 23.0729 28.9967 23.1095Z" fill="#EDAE50"/>
<path d="M27.2487 22.2433C27.2683 22.6585 26.9099 22.9799 26.57 22.9756C26.1821 22.9707 25.8637 22.647 25.8672 22.2364C25.8705 21.835 26.1655 21.5031 26.5748 21.502C26.9158 21.5009 27.2676 21.8255 27.2487 22.2433Z" fill="#414141"/>
<path d="M27.2888 20.8637C27.3676 20.8552 27.4333 20.8849 27.4879 20.9471C27.5362 21.0022 27.5881 21.054 27.6353 21.1102C27.7448 21.2405 27.678 21.479 27.5362 21.5259C27.4743 21.5464 27.4175 21.5477 27.363 21.5097C27.2463 21.4281 27.1468 21.3249 27.0584 21.2118C26.9646 21.0916 27.0123 20.9377 27.1518 20.8855C27.1956 20.8684 27.2422 20.861 27.2888 20.8637Z" fill="#FCD38C"/>
<path d="M8.67511 27.945C8.48287 27.8374 8.36881 27.6702 8.33452 27.4406C8.32277 27.3623 8.30248 27.2858 8.28742 27.2078C8.27674 27.1533 8.2509 27.1351 8.19739 27.1397C7.8572 27.1701 7.51537 27.1739 7.17466 27.151C7.12852 27.1481 7.08228 27.1453 7.03646 27.1397C6.99278 27.1344 6.97003 27.1536 6.96106 27.1984C6.94482 27.2797 6.92303 27.3599 6.91043 27.4419C6.87145 27.6949 6.74115 27.8689 6.51932 27.9668C6.37739 28.0078 6.23555 27.9935 6.09372 27.9655C5.96236 27.9395 5.82746 27.9274 5.70838 27.854C5.66267 27.8182 5.61354 27.7873 5.57392 27.7429C5.43241 27.5838 5.37388 27.3982 5.41041 27.1816C5.42418 27.0998 5.44245 27.019 5.45793 26.9375C5.4841 26.7982 5.48388 26.7974 5.36181 26.7515C5.08384 26.6464 4.81269 26.5219 4.55012 26.3789C4.48689 26.3448 4.42281 26.3107 4.36236 26.2718C4.31622 26.2415 4.28557 26.2479 4.25556 26.2945C4.20953 26.3662 4.15848 26.4342 4.11277 26.5063C3.91807 26.8139 3.53604 26.9039 3.23571 26.6575C3.157 26.5929 3.07391 26.5343 2.99498 26.4701C2.71634 26.2436 2.6655 25.8827 2.86853 25.5768C2.92172 25.4964 2.97608 25.4169 3.03161 25.3382C3.05799 25.3012 3.05757 25.2708 3.02414 25.2404C3.0079 25.2257 2.99338 25.209 2.97789 25.1934C2.71773 24.9303 2.47743 24.6458 2.25923 24.3426C2.19728 24.2565 2.19675 24.2569 2.10575 24.3125C2.04413 24.3502 1.98282 24.3883 1.9212 24.4261C1.59716 24.6231 1.27526 24.5365 1.07501 24.1989C1.04756 24.1557 1.0372 24.1401 1.00847 24.0882C0.973123 24.0152 0.930402 23.9468 0.898362 23.8714C0.761763 23.5496 0.856923 23.2203 1.14283 23.0385C1.2099 22.9958 1.27804 22.9549 1.34575 22.9125C1.43589 22.8557 1.43685 22.855 1.39809 22.7563C1.27348 22.4388 1.17068 22.112 1.0905 21.7787C1.07725 21.7238 1.06273 21.6692 1.05205 21.6137C1.04137 21.5583 1.01104 21.5402 0.960093 21.5472C0.864933 21.56 0.769666 21.5748 0.673972 21.5806C0.428328 21.5957 0.238756 21.4917 0.110487 21.2676C0.0570862 21.1754 0.0370078 21.072 0.0280365 20.9652C0.0214148 20.8857 0.00667584 20.8142 0.00165617 20.7289C-0.0190633 20.4066 0.154382 20.0019 0.535664 19.9728C0.617153 19.9667 0.698216 19.9536 0.779492 19.9441C0.873477 19.9327 0.876788 19.9319 0.878924 19.8368C0.885038 19.5571 0.906434 19.2779 0.943005 19.0008C0.957957 18.8886 0.975045 18.7766 0.993629 18.665C1.01146 18.5585 1.01157 18.5562 0.911712 18.5215C0.836951 18.4956 0.76219 18.4711 0.688603 18.4445C0.36884 18.3298 0.203725 18.0059 0.293438 17.6613C0.326546 17.5339 0.367238 17.4085 0.41092 17.2847C0.522954 16.9656 0.829688 16.8046 1.13717 16.9012C1.22923 16.93 1.32151 16.9589 1.41101 16.9952C1.46825 17.018 1.49367 16.999 1.51781 16.9453C1.57452 16.8191 1.63615 16.6953 1.69585 16.571C1.71721 16.528 1.73686 16.4937 1.75619 16.4543C1.82027 16.3293 1.88831 16.2061 1.96979 16.0922C2.04317 16.0241 14.3888 23.7462 14.354 23.8353C14.3303 23.8807 14.3112 23.9247 14.2885 23.9685C14.2449 24.0508 14.2038 24.1345 14.1574 24.2149C13.9813 24.5197 13.6607 24.6125 13.3615 24.4463C13.2828 24.4026 13.2073 24.3524 13.1301 24.3056C13.0498 24.257 13.0488 24.2565 12.9943 24.3315C12.8724 24.4989 12.745 24.6614 12.6119 24.8188C12.4928 24.9595 12.3669 25.0927 12.2388 25.2237C12.1798 25.2839 12.1799 25.2857 12.2253 25.3542C12.2765 25.4315 12.3305 25.5064 12.3812 25.584C12.578 25.8851 12.5252 26.2472 12.2519 26.4687C12.1643 26.5399 12.0753 26.6089 11.9849 26.6757C11.7009 26.8851 11.3635 26.8278 11.1535 26.535C11.1001 26.4599 11.0494 26.3818 10.996 26.3063C10.9477 26.2381 10.9459 26.2371 10.8752 26.278C10.5852 26.4469 10.2843 26.5934 9.97457 26.7164C9.93121 26.7334 9.88752 26.7494 9.84438 26.7669C9.7663 26.7986 9.76481 26.7998 9.78029 26.8919C9.79407 26.9737 9.80561 27.0566 9.82771 27.136C9.91017 27.433 9.738 27.7916 9.35576 27.9178C9.19054 27.9725 8.83265 28.0121 8.67511 27.945Z" fill="#414141"/>
<path d="M14.3302 23.8576C14.0709 23.6976 11.7631 22.1852 11.6016 22.0904C11.5139 22.0432 11.5424 22.0376 11.5956 21.9313C11.7843 21.5024 11.9114 21.0458 11.9724 20.5767C12.0164 20.235 12.014 19.8918 11.9875 19.5477C11.9627 19.2234 11.9055 18.9029 11.8167 18.5916C11.7036 18.1949 11.5399 17.8237 11.3379 17.4689C11.1124 17.0733 10.8252 16.7354 10.5079 16.4238C10.264 16.1842 9.98821 15.9897 9.69707 15.8207C9.25965 15.5651 8.78365 15.3926 8.2905 15.311C7.98077 15.2599 7.66816 15.2346 7.35555 15.2565C6.69029 15.303 6.06048 15.4891 5.47467 15.8316C5.01256 16.1088 4.59896 16.4688 4.25211 16.8958C4.16368 17.0048 4.03776 17.2216 3.95115 17.3316C3.90138 17.3947 3.07324 16.8233 1.9467 16.1145C1.98824 16.0367 2.02829 15.973 2.07272 15.9051C2.10038 15.8626 2.09814 15.8305 2.06204 15.7969C1.99294 15.7316 1.92405 15.6661 1.85623 15.5993C1.6405 15.3864 1.59009 15.1041 1.72519 14.8268C1.75606 14.7633 1.8118 14.6141 1.89682 14.5056C1.93794 14.4531 1.98322 14.4053 2.02765 14.3563C2.2451 14.1171 2.66782 14.1131 2.89477 14.3336C3.16947 14.6001 3.13337 14.5381 3.3647 14.3494C3.56239 14.1884 3.76243 14.0313 3.97155 13.887C4.08412 13.8094 4.09138 13.7719 4.03445 13.642C3.97101 13.497 3.91387 13.3513 3.92616 13.1857C3.94132 12.9812 4.01939 12.8062 4.1765 12.6926C4.40078 12.5306 4.63895 12.3973 4.92507 12.4056C5.16142 12.4126 5.32697 12.5376 5.44701 12.7423C5.48973 12.8159 5.52295 12.8963 5.55755 12.9752C5.58959 13.049 5.6415 13.0731 5.71423 13.0527C6.02064 12.9674 6.33101 12.9028 6.6434 12.8491C6.75693 12.8295 6.77979 12.7941 6.78417 12.6741C6.78626 12.6325 6.78626 12.5908 6.78417 12.5492C6.75992 12.1679 7.03761 11.8479 7.36581 11.8258C7.54673 11.8135 7.72797 11.7989 7.90761 11.8371C8.17173 11.8939 8.43169 12.1512 8.40552 12.5045C8.40189 12.5534 8.40456 12.6028 8.40552 12.6522C8.40787 12.7974 8.4335 12.8329 8.56839 12.8535C8.86068 12.897 9.15014 12.9598 9.43509 13.0416C9.58589 13.0855 9.60928 13.0696 9.67208 12.9196C9.72132 12.8021 9.77066 12.6845 9.8576 12.5902C10.0334 12.4002 10.2522 12.3696 10.4801 12.4232C10.6606 12.4657 10.8302 12.5528 10.9856 12.6605C11.2389 12.8361 11.3311 13.1516 11.2281 13.4584C11.2067 13.5224 11.1809 13.5848 11.154 13.6466C11.1006 13.7679 11.1096 13.8122 11.2158 13.8836C11.4388 14.0322 11.6535 14.1945 11.8589 14.3695C12.084 14.5626 12.0438 14.5919 12.2921 14.3529C12.5096 14.1435 12.8454 14.1185 13.0437 14.262C13.2447 14.4071 13.4195 14.59 13.5356 14.8186C13.6389 15.0224 13.625 15.3971 13.4193 15.5853C13.3576 15.6421 13.3029 15.7073 13.2456 15.7695C13.1959 15.8234 13.1892 15.8824 13.2285 15.944C13.4123 16.2319 13.5769 16.5333 13.7209 16.8458C13.7563 16.9225 13.8171 16.942 13.8918 16.9169C13.9798 16.8867 14.0696 16.8628 14.1606 16.8454C14.4039 16.7999 14.6719 16.9135 14.7968 17.1407C14.9182 17.3608 14.9927 17.6023 15.0003 17.8606C15.0085 18.1446 14.8756 18.3411 14.6479 18.4719C14.5722 18.5143 14.4925 18.5479 14.4101 18.5721C14.3231 18.5984 14.2858 18.6548 14.3033 18.7493C14.3647 19.0879 14.3851 19.4309 14.4053 19.7743C14.4107 19.8652 14.452 19.9154 14.5379 19.918C14.6019 19.9201 14.6651 19.9328 14.7284 19.9416C15.0549 19.9871 15.2782 20.2572 15.2794 20.6086C15.2799 20.6766 15.2769 20.7446 15.2703 20.8123C15.2596 20.9191 15.2237 21.0721 15.1955 21.1719C15.1137 21.4629 14.8378 21.6221 14.5531 21.6029C14.461 21.5968 14.3693 21.581 14.2773 21.5713C14.1927 21.5625 14.1884 21.5636 14.1674 21.6529C14.1041 21.9208 14.0352 22.1868 13.9448 22.4461C13.9027 22.5666 13.8593 22.6867 13.8117 22.8048C13.7904 22.8572 13.7993 22.8893 13.845 22.9167C13.9349 22.9707 14.0254 23.0236 14.112 23.0832C14.3432 23.2423 14.4386 23.5316 14.3545 23.8078C14.3477 23.8251 14.3395 23.8417 14.3302 23.8576Z" fill="#666059"/>
<path d="M4.91835 17.8868C5.02516 17.7505 5.12651 17.609 5.24346 17.4812C5.79509 16.8783 6.46164 16.5243 7.24866 16.4302C7.94469 16.3468 8.60504 16.4756 9.21499 16.8406C10.154 17.4026 10.7141 18.2592 10.8907 19.3882C10.9933 20.0441 10.9156 20.6843 10.6707 21.299C10.6569 21.3338 10.6471 21.3703 10.6354 21.4059C10.662 21.4651 10.6362 21.5159 10.6129 21.5672C10.4941 21.8285 10.3379 22.0629 10.1571 22.2774C9.63707 22.8942 9.00064 23.303 8.22825 23.4445C7.20295 23.6321 6.27794 23.3798 5.47372 22.6747C4.82148 22.1028 4.42845 21.3622 4.30189 20.4743C4.20342 19.7832 4.28534 19.1099 4.55459 18.4667C4.61984 18.3107 4.69909 18.1633 4.77887 18.0156C4.81144 17.954 4.85395 17.908 4.91835 17.8868Z" fill="#EDAE50"/>
<path d="M5.51408 19.9235C5.49645 18.6499 6.52079 17.6793 7.60738 17.6734C8.67305 17.6676 9.73658 18.5701 9.7384 19.9349C9.74021 21.2018 8.77344 22.1646 7.64509 22.177C6.4158 22.1905 5.49154 21.1117 5.51408 19.9235Z" fill="#45423D"/>
<path d="M9.70127 17.8453C9.71889 18.0332 9.49759 18.1806 9.3438 18.072C9.23945 17.9984 9.14087 17.9234 9.05821 17.8252C8.93912 17.6841 8.96625 17.5378 9.124 17.4456C9.24084 17.3774 9.34978 17.3725 9.45765 17.4704C9.53359 17.5391 9.60717 17.6085 9.66164 17.6981C9.68926 17.7414 9.70314 17.793 9.70127 17.8453Z" fill="#FCD38C"/>
<path d="M5.93821 19.9386C5.91204 19.0185 6.61309 18.121 7.63059 18.125C8.58112 18.1291 9.32307 18.9399 9.31357 19.954C9.30428 20.9537 8.52495 21.7375 7.59876 21.7253C6.6384 21.7127 5.91226 20.8531 5.93821 19.9386Z" fill="#EDAE50"/>
<path d="M7.62114 20.6597C7.24253 20.6597 6.92693 20.3248 6.92971 19.9213C6.93216 19.5237 7.22181 19.191 7.62552 19.1866C7.99377 19.1826 8.31535 19.5063 8.31332 19.9276C8.31139 20.338 8.00808 20.6602 7.62114 20.6597Z" fill="#414141"/>
<path d="M8.41999 18.7056C8.45972 18.7056 8.4986 18.7102 8.53235 18.734C8.6792 18.8376 8.75781 18.9816 8.75258 19.171C8.7498 19.2683 8.61854 19.3707 8.52904 19.3491C8.3777 19.3125 8.25434 19.2328 8.17007 19.0894C8.09723 18.9654 8.11165 18.8615 8.2208 18.7738C8.27987 18.7268 8.34737 18.7076 8.41999 18.7056Z" fill="#FCD38C"/>
<path d="M4.9179 17.8872C4.80768 18.0727 4.70098 18.2598 4.61576 18.4605C4.47258 18.7992 4.3796 19.1594 4.3401 19.5283C4.28769 19.9936 4.32387 20.4653 4.4465 20.9154C4.56912 21.3654 4.77568 21.7846 5.05386 22.148C5.47679 22.7002 6.00973 23.0806 6.64819 23.2928C7.01826 23.4158 7.39933 23.4723 7.78531 23.4451C8.79501 23.3742 9.61845 22.9169 10.2477 22.0706C10.3798 21.8921 10.4938 21.6992 10.5877 21.4952C10.6018 21.4649 10.6192 21.4363 10.635 21.4068C10.7228 21.4506 11.4058 21.9197 11.5222 22.0064C11.5684 22.0405 11.5475 22.0859 11.5255 22.1275C11.4056 22.3554 11.2788 22.5787 11.1262 22.784C10.7926 23.2329 10.4036 23.6157 9.94334 23.9157C9.49668 24.2071 9.00599 24.4141 8.49298 24.5275C8.0961 24.6166 7.6941 24.6298 7.29327 24.6032C6.76012 24.5683 6.24918 24.4247 5.76281 24.1847C5.42962 24.0222 5.11736 23.815 4.83363 23.5682C4.27559 23.079 3.84273 22.4882 3.56269 21.7746C3.38372 21.3165 3.27181 20.832 3.23086 20.3379C3.16678 19.6009 3.27657 18.8916 3.52051 18.2022C3.6099 17.9498 3.72781 17.7129 3.85383 17.48C3.86622 17.4573 3.88011 17.4346 3.89442 17.4133C3.971 17.2976 3.98552 17.294 4.09937 17.363C4.29055 17.479 4.65826 17.7215 4.84549 17.8431C4.8705 17.8561 4.89469 17.8708 4.9179 17.8872Z" fill="#666059"/>
<path d="M10.853 20.6739C10.9495 20.2167 10.9585 19.7435 10.8795 19.2826C10.8005 18.8216 10.635 18.3823 10.393 17.9908C9.9884 17.4358 9.48013 16.9684 8.91611 16.6797C8.56406 16.5184 8.18677 16.4285 7.80366 16.4147C6.79236 16.3764 5.92534 16.7328 5.21907 17.5073C5.108 17.6313 5.0037 17.762 4.90667 17.8988C4.82358 17.8458 4.05856 17.4307 3.95101 17.3319C3.90829 17.2926 4.24183 16.8906 4.41325 16.7028C4.78791 16.2922 5.21138 15.953 5.69796 15.7046C6.15337 15.4547 6.67392 15.3119 7.19917 15.2525C7.60189 15.2062 8.00863 15.2176 8.40848 15.2865C8.93555 15.3789 9.42149 15.597 9.88234 15.8886C10.1984 16.0862 10.4893 16.3261 10.7481 16.6022C11.2566 17.1491 11.6308 17.7837 11.8416 18.5238C11.976 18.9989 12.041 19.4931 12.0346 19.9892C12.0277 20.7292 11.853 21.4092 11.5994 21.9568C11.5491 22.0654 11.5947 22.0626 11.4489 21.9568C11.2698 21.8204 10.8229 21.5358 10.6343 21.407C10.6226 21.3975 10.7766 21.0384 10.853 20.6739Z" fill="#45423D"/>
<path d="M6.15808 1.38581C6.08033 1.12272 6.02063 0.854393 5.95516 0.587775C5.93785 0.517571 5.95729 0.498713 6.02767 0.480537C9.9222 -0.526863 14.6582 0.242887 17.0906 1.02661C17.4761 1.17372 17.8513 1.34469 18.1984 1.57859C18.349 1.68015 18.4919 1.79204 18.6042 1.94211C18.6355 1.9832 18.6637 2.02688 18.6885 2.07275C18.7473 2.18419 18.7605 2.29654 18.7051 2.41843C18.577 2.70122 18.4376 2.97764 18.287 3.24771C18.1897 3.42356 18.0896 3.59771 17.991 3.77276C17.9445 3.85772 17.8924 3.939 17.8349 4.01598C17.7846 4.06585 17.7281 4.04188 17.6739 4.02893C17.4357 3.97213 17.1951 3.92771 16.9583 3.86569C16.9409 3.86115 16.9232 3.86887 16.9055 3.86955C16.6575 3.78412 16.3957 3.77436 16.1438 3.71051C16.1108 3.70211 16.0821 3.72335 16.0505 3.71767C15.6368 3.63213 15.2174 3.58896 14.8009 3.52807C14.6544 3.5066 14.5032 3.51796 14.3612 3.4623C14.3069 3.40129 14.2971 3.32155 14.2789 3.24464C14.1739 2.79092 14.0375 2.35061 13.7876 1.9596C13.7495 1.90019 13.7082 1.8435 13.6649 1.7883C13.5349 1.62233 13.3797 1.52361 13.169 1.49419C12.6194 1.41728 12.0689 1.35082 11.5169 1.30107C10.5984 1.2178 9.6788 1.2036 8.7586 1.21746C8.30447 1.22416 7.85078 1.25631 7.39751 1.29789C7.02221 1.33197 6.64777 1.37241 6.27439 1.425C6.22814 1.42978 6.1882 1.42682 6.15808 1.38581Z" fill="#EDAE50"/>
<path d="M19.0728 9.30707C18.8141 9.30514 18.5554 9.29946 18.2968 9.30333C18.2144 9.30446 18.1961 9.25346 18.1782 9.19041C18.1081 9.16769 18.11 9.09953 18.0993 9.04273C18.0156 8.60548 17.9369 8.16699 17.8459 7.73134C17.6222 6.66021 17.3708 5.59669 17.0649 4.54828C17.0122 4.36766 16.9555 4.1884 16.904 4.00732C16.8883 3.95222 16.8584 3.89213 16.9091 3.83692C16.9277 3.8142 16.9527 3.8142 16.9773 3.81886C17.2651 3.87566 17.5527 3.93246 17.8355 4.01448C18.0211 4.5702 18.1772 5.13559 18.3213 5.70484C18.5171 6.47845 18.6851 7.25922 18.8417 8.04271C18.9001 8.33535 19.0721 9.2998 19.0728 9.30707Z" fill="#45423D"/>
<path d="M6.15815 1.3856C6.49832 1.32381 6.84168 1.28791 7.18484 1.25519C7.4323 1.23156 7.68104 1.21646 7.92914 1.19839C8.61844 1.1475 9.30837 1.14852 9.9981 1.1609C10.4991 1.16988 10.9997 1.19817 11.4998 1.24042C11.833 1.2686 12.1655 1.30097 12.4974 1.3413C12.7761 1.37538 13.0527 1.42457 13.3316 1.46319C13.4217 1.47558 13.4897 1.52261 13.5541 1.5852C13.7761 1.80104 13.9329 2.06504 14.056 2.35313C14.2026 2.69552 14.3032 3.05359 14.3699 3.42267C14.3544 3.47447 14.3147 3.47515 14.2745 3.47254C14.0974 3.46118 13.9199 3.44789 13.7433 3.4304C13.5876 3.41506 13.4312 3.40768 13.2757 3.39836C13.0278 3.38382 12.7796 3.35519 12.5305 3.36985C12.4344 3.37564 12.3396 3.34985 12.2437 3.34826C12.1138 3.34622 12.0735 3.37609 12.0284 3.50412C11.7629 4.25922 11.5443 5.02987 11.3521 5.80939C11.0552 7.01355 10.8288 8.23349 10.6384 9.46116C10.5873 9.78924 10.5458 10.1189 10.5003 10.448C10.491 10.5149 10.4842 10.5835 10.4441 10.6411C10.4128 10.6745 10.373 10.6768 10.3347 10.6662C10.1562 10.6172 9.97888 10.5624 9.80073 10.512C9.7868 10.5086 9.77385 10.5017 9.76301 10.4918C9.75218 10.4819 9.74379 10.4693 9.73857 10.4552C9.70984 10.373 9.72789 10.2895 9.73943 10.2086C9.92099 8.88067 10.1432 7.56098 10.4356 6.25539C10.6423 5.33205 10.8779 4.41803 11.1798 3.52411C11.2255 3.38893 11.1998 3.34963 11.0663 3.34804C10.5372 3.34179 10.009 3.36133 9.48011 3.38825C9.21439 3.40188 8.94877 3.41347 8.68369 3.4371C8.66596 3.4371 8.64813 3.43778 8.63029 3.43789C8.35357 3.43982 8.34716 3.4463 8.2599 3.72019C7.75206 5.31262 7.39705 6.94505 7.12279 8.59917C7.04076 9.09389 6.96889 9.59021 6.89583 10.0864C6.88921 10.1319 6.88451 10.1766 6.8576 10.2147C6.83197 10.2586 6.78967 10.2645 6.74717 10.2715C6.52651 10.3055 6.30458 10.3293 6.085 10.3708C6.03555 10.3802 5.97478 10.3914 5.96484 10.3067C6.00165 10.0452 6.03854 9.78367 6.07549 9.52217C6.17118 8.84193 6.27955 8.16412 6.40059 7.48873C6.5593 6.6038 6.74086 5.72579 6.96515 4.85834C7.07195 4.44688 7.18228 4.03633 7.31653 3.63374C7.36352 3.49265 7.3633 3.49265 7.26174 3.39518C7.01673 3.15923 6.77259 2.92238 6.5263 2.68791C6.48103 2.64568 6.44932 2.58943 6.43563 2.52705C6.35221 2.18319 6.26474 1.84046 6.17866 1.49727C6.16376 1.46222 6.15681 1.42393 6.15837 1.38549L6.15815 1.3856Z" fill="#45423D"/>
<path d="M6.15858 1.38525C6.1716 1.42126 6.18645 1.45682 6.17887 1.49703C6.15751 1.46307 6.13038 1.42967 6.15858 1.38525Z" fill="#A9A9A9"/>
<path d="M11.8133 11.2595C11.4041 11.0257 10.975 10.8415 10.5362 10.6819C10.4962 10.6673 10.4543 10.6565 10.4238 10.6217C10.469 10.2887 10.5108 9.95517 10.5599 9.62289C10.6738 8.8536 10.8069 8.08813 10.959 7.32648C11.1908 6.17208 11.468 5.03086 11.8325 3.91509C11.8909 3.73651 11.9513 3.55873 12.012 3.38117C12.0426 3.29131 12.044 3.29097 12.1345 3.2937C12.6392 3.30892 13.1438 3.32948 13.6478 3.36311C13.8889 3.37912 14.1295 3.40275 14.3704 3.42297C14.7683 3.46364 15.1649 3.51578 15.5607 3.57542C15.7289 3.60087 15.8971 3.62427 16.0641 3.65733C16.1602 3.69811 16.2197 3.77627 16.2777 3.86601C16.4982 4.20761 16.6739 4.57646 16.82 4.95657C16.9729 5.35417 17.1128 5.75971 17.2072 6.17992C17.2444 6.34532 17.2971 6.50652 17.3354 6.67135C17.4603 7.21379 17.5989 7.7527 17.6999 8.30139C17.7517 8.58278 17.8067 8.86393 17.8749 9.14202C17.8931 9.21598 17.9232 9.2997 17.8336 9.35298C17.824 9.36434 17.8161 9.37854 17.8044 9.38524C17.6459 9.47442 17.5387 9.6196 17.4347 9.76762C17.2608 10.0147 17.0887 10.2631 16.9159 10.5111C16.8672 10.5338 16.827 10.515 16.7872 10.4847C16.5791 10.3261 16.369 10.1703 16.157 10.0172C16.0493 9.93915 16.041 9.90008 16.1133 9.78489C16.2159 9.6213 16.3262 9.4634 16.4321 9.3022C16.4728 9.24018 16.5163 9.17985 16.5495 9.11283C16.6095 8.99128 16.5875 8.87007 16.4954 8.79748C16.4033 8.72489 16.2886 8.73966 16.2003 8.84496C16.0889 8.97788 16.0011 9.13021 15.906 9.27664C15.6039 9.7396 15.3013 10.2022 14.9981 10.6645C14.9696 10.7079 14.9406 10.7513 14.9212 10.8008C14.8769 10.9133 14.9078 11.0291 14.9976 11.0915C15.0905 11.156 15.1974 11.1433 15.2761 11.0474C15.3863 10.9134 15.4734 10.7607 15.5692 10.6158C15.6303 10.5227 15.6912 10.4296 15.7542 10.3381C15.7981 10.2745 15.8466 10.2651 15.9098 10.3082C16.1403 10.4658 16.3603 10.6393 16.5851 10.8053C16.6228 10.8332 16.6599 10.8661 16.6584 10.9232C16.5881 11.045 16.518 11.1672 16.4472 11.2886C16.4117 11.3496 16.3735 11.4089 16.3384 11.4704C16.1922 11.7245 16.1877 11.9872 16.3137 12.2481C16.6531 12.9504 17.0058 13.6453 17.4037 14.3128C17.4533 14.3959 17.5066 14.4761 17.5564 14.5587C17.6966 14.7912 17.906 14.8845 18.1525 14.8923C18.3903 14.8998 18.6275 14.8721 18.8643 14.8499C18.8589 15.9015 18.5759 16.8636 18.0463 17.7489C17.972 17.8728 17.8918 17.9258 17.7472 17.9212C17.3638 17.9091 16.9798 17.9189 16.5961 17.9201C16.5186 17.9087 16.5213 17.8358 16.5107 17.781C16.4652 17.5554 16.4054 17.3343 16.3421 17.1138C16.0995 16.263 15.7476 15.452 15.2965 14.7035C15.1508 14.4615 14.988 14.233 14.8354 13.9966C14.6934 13.7996 14.5404 13.6121 14.3824 13.4301C14.1011 13.106 13.8091 12.7928 13.4895 12.5099C13.0272 12.1032 12.5321 11.7408 12.0099 11.4267C11.9376 11.3805 11.8509 11.3518 11.8133 11.2595Z" fill="#B9E1E1"/>
<path d="M17.809 9.37923C17.8386 9.31107 17.836 9.21701 17.8207 9.15283C17.6858 8.59335 16.7332 4.6928 16.1945 3.83444C16.1293 3.73038 16.1139 3.70278 16.0625 3.65723C16.3155 3.67813 16.5636 3.73493 16.8144 3.77219C16.8336 3.77454 16.852 3.78169 16.8681 3.79304C16.8842 3.80439 16.8976 3.81963 16.9071 3.83751C17.2435 4.92435 17.5322 6.02532 17.773 7.14041C17.9206 7.81997 18.0721 8.55018 18.1925 9.23587C18.1929 9.23744 18.1934 9.23894 18.1943 9.2403C18.2185 9.28813 18.2247 9.27495 18.0838 9.29369C17.9965 9.30562 17.879 9.34708 17.809 9.37923Z" fill="#DCF9FB"/>
<path d="M9.76233 10.442C9.54328 10.3966 9.32445 10.3469 9.10486 10.307C8.84288 10.2598 8.57876 10.2272 8.31357 10.2094C8.06259 10.192 7.81374 10.1867 7.56233 10.1861C7.42103 10.1861 7.27792 10.2007 7.13577 10.1896C7.07756 10.1421 7.08803 10.0777 7.09646 10.0131C7.21704 9.08815 7.35727 8.1672 7.54001 7.25261C7.66817 6.6085 7.81246 5.96893 7.99007 5.33868C8.15967 4.7366 8.35725 4.14509 8.66345 3.60288C8.70959 3.52132 8.71685 3.45384 8.66805 3.37739C8.7018 3.36296 8.73768 3.36307 8.77303 3.36137C9.57896 3.32252 10.3848 3.28037 11.1919 3.28821C11.2267 3.28821 11.2629 3.27946 11.2967 3.29787C11.3103 3.33865 11.2877 3.37193 11.276 3.4059C10.9202 4.43966 10.6512 5.50113 10.4197 6.57339C10.2233 7.4831 10.0602 8.39962 9.91965 9.3208C9.86305 9.69409 9.81488 10.0684 9.76233 10.442Z" fill="#B9E1E1"/>
<path d="M8.73957 3.36316C8.88386 3.34521 8.87019 3.35362 8.78368 3.51084C8.5501 3.93525 8.35337 4.37159 8.20311 4.832C8.11595 5.09885 8.03147 5.36819 7.96622 5.64345C7.89498 5.9438 7.81093 6.24064 7.74482 6.54259C7.67785 6.84817 7.62136 7.15602 7.55941 7.46274C7.49597 7.77685 7.43125 8.09061 7.38298 8.40766C7.30821 8.89993 7.23602 9.39253 7.16638 9.88548C7.15228 9.98579 7.13434 10.0868 7.13722 10.1895C7.10123 10.2066 6.85473 10.2337 6.83594 10.1895C6.85217 9.94784 6.89478 9.70985 6.92992 9.47118C7.01686 8.88137 7.11455 8.2935 7.22299 7.70755C7.476 6.35344 7.78775 5.01524 8.20556 3.70748C8.23194 3.62524 8.26313 3.54458 8.28652 3.46143C8.30019 3.41269 8.32742 3.39463 8.3711 3.39327C8.47118 3.38793 8.72184 3.36237 8.73957 3.36316Z" fill="#DCF9FB"/>
<path d="M22.0629 20.0206C21.8144 20.0003 21.5375 19.7923 21.3397 20.3295C21.1431 20.8621 21.4321 21.0672 21.3885 21.0493C21.367 21.0464 21.3453 21.0457 21.3237 21.0471C21.1609 21.0492 20.9926 21.0205 20.8301 21.0203C20.7726 20.9922 20.7861 20.9421 20.7958 20.8936C20.8776 20.475 21.003 20.0673 21.1696 19.6781C21.39 19.1678 21.6599 18.6898 21.998 18.2559C22.4679 17.6532 23.0186 17.1539 23.6589 16.7661C24.3253 16.3624 25.0407 16.1127 25.7985 16.0039C26.1647 15.9514 26.5339 15.9317 26.9039 15.9593C27.0444 15.9698 27.1541 15.9089 27.2296 15.7857C27.2603 15.7356 27.2943 15.6975 27.347 15.6776C27.408 15.6769 27.4635 15.7044 27.5217 15.7183C27.6498 15.7488 27.6632 15.7439 27.7194 15.6206C27.8101 15.4213 27.9042 15.224 28.0215 15.0401C28.0503 15.0203 28.0744 14.9935 28.0918 14.962C28.2438 14.7145 28.4381 14.5098 28.6666 14.3418C28.673 14.3386 28.6802 14.3373 28.6873 14.3381C28.77 14.3381 28.7915 14.4053 28.8115 14.4709C28.899 14.7589 28.9973 15.042 29.119 15.3163C29.3204 15.7707 29.5693 16.1911 29.8886 16.562C29.9362 16.6173 29.9964 16.6666 29.9685 16.7568C29.8022 17.0673 29.6358 17.3778 29.4695 17.6883C29.4451 17.7337 29.418 17.7781 29.3922 17.8229C29.3459 17.9011 29.2937 17.9752 29.2362 18.0443C29.2212 18.0328 29.2053 18.0227 29.1887 18.014C29.1791 18.009 29.161 17.992 29.1517 17.9865C28.9775 17.8857 29.0021 17.879 29.0889 17.6911C29.1433 17.5727 29.1716 17.4526 29.1373 17.319C29.1237 17.2638 29.0995 17.2123 29.0663 17.1675C29.0331 17.1228 28.9915 17.0858 28.9443 17.059C28.8329 16.9946 28.7173 16.934 28.59 16.9056C28.4114 16.8662 28.2248 16.9542 28.1389 17.126C28.1105 17.1828 28.0906 17.2437 28.0641 17.3016C28.0263 17.386 28.0045 17.3978 27.9222 17.3728C27.703 17.3064 27.4817 17.2521 27.255 17.2252C27.2336 17.2226 27.2134 17.2138 27.1923 17.2118C27.1317 17.2041 27.1062 17.1663 27.1069 17.1042C27.1069 17.0436 27.103 16.983 27.1069 16.9224C27.1208 16.6935 26.9837 16.5388 26.7847 16.497C26.6412 16.4667 26.4933 16.4688 26.3506 16.5029C26.1682 16.5466 26.0602 16.6651 26.0348 16.8664C26.0245 16.9411 26.0186 17.0164 26.0168 17.0919C26.0158 17.1902 26.0095 17.1985 25.9161 17.2179C25.8011 17.2419 25.685 17.26 25.5699 17.2833C25.4511 17.3074 25.3336 17.3374 25.2174 17.3734C25.1419 17.3969 25.1242 17.3875 25.0927 17.3125C25.0636 17.2436 25.0364 17.1738 24.999 17.1092C24.9004 16.9388 24.7222 16.8601 24.5398 16.91C24.4087 16.9465 24.284 17.0051 24.1705 17.0836C24.005 17.1972 23.9446 17.4117 24.0146 17.614C24.0355 17.6741 24.0661 17.7302 24.0905 17.7891C24.1212 17.8631 24.1186 17.8807 24.0575 17.9205C23.8418 18.0609 23.6422 18.2248 23.4437 18.3905C23.3857 18.439 23.3698 18.4395 23.3155 18.3863C23.2672 18.3361 23.216 18.2893 23.1621 18.246C23.0095 18.1285 22.8011 18.127 22.6576 18.2559C22.5575 18.3458 22.4629 18.4437 22.3917 18.5638C22.2837 18.7456 22.3086 18.9614 22.4558 19.1091C22.5153 19.1689 22.5214 19.1734 22.6182 19.2437C22.4695 19.4018 22.1793 19.8286 22.0942 19.9968" fill="#414141"/>
<path d="M20.0749 20.999C19.4773 20.9983 18.8798 20.9977 18.2821 20.9971C17.3324 20.9971 16.3827 20.9971 15.4328 20.9971C15.2139 20.9971 15.2102 20.9897 15.2406 20.7612C15.262 20.5946 15.2658 20.4284 15.1779 20.2769C15.0832 20.1135 14.9494 20.0088 14.7696 19.9795C14.6819 19.9642 14.5934 19.9546 14.5046 19.9508C14.3978 19.9476 14.3785 19.9193 14.3745 19.8046C14.3617 19.4343 14.3332 19.0663 14.2663 18.7013C14.2397 18.557 14.247 18.5448 14.3831 18.5048C14.4932 18.4726 14.6004 18.4325 14.6987 18.3697C14.9428 18.2133 15.0145 17.9464 14.956 17.6719C14.9293 17.547 14.8886 17.4249 14.8492 17.3034C14.7467 16.9883 14.4754 16.8244 14.1677 16.8857C14.0623 16.9067 13.9613 16.9425 13.8597 16.9766C13.7762 17.005 13.7658 17.0022 13.727 16.9159C13.5654 16.5535 13.3748 16.2065 13.1572 15.8788C13.1163 15.8176 13.1185 15.7985 13.1807 15.7487C13.2662 15.6799 13.3354 15.5925 13.4146 15.5168C13.6053 15.3351 13.6018 14.9525 13.4878 14.7698C13.3803 14.5979 13.2442 14.4517 13.096 14.3233C12.9097 14.1611 12.5828 14.1553 12.3756 14.3535C12.3043 14.4216 12.2233 14.4784 12.1602 14.5562C12.1224 14.6029 12.0875 14.604 12.0427 14.5637C11.9371 14.4684 11.8304 14.3743 11.7208 14.2842C11.5491 14.1431 11.3684 14.016 11.1851 13.8919C11.0263 13.7844 11.0337 13.8086 11.1144 13.6306C11.1481 13.5598 11.1777 13.4868 11.2031 13.4121C11.2955 13.1211 11.2117 12.8024 10.9171 12.6433C10.79 12.5752 10.6623 12.5049 10.5253 12.4652C10.3331 12.4096 10.1454 12.4198 9.97645 12.5533C9.9079 12.6081 9.85292 12.6799 9.81625 12.7624C9.77075 12.8608 9.73081 12.962 9.68724 13.0613C9.65423 13.1361 9.64697 13.1408 9.57253 13.1159C9.28694 13.0205 8.99495 12.9553 8.69964 12.9054C8.62947 12.8941 8.55909 12.8827 8.48882 12.872C8.38703 12.8563 8.37913 12.8479 8.37731 12.7342C8.37593 12.6397 8.37625 12.5451 8.37731 12.4502C8.37966 12.1876 8.24915 12.0185 8.0379 11.9089C7.97718 11.8763 7.91071 11.8576 7.84277 11.8541C7.68321 11.8483 7.52333 11.8375 7.36398 11.8654C7.06013 11.9195 6.87141 12.1451 6.86201 12.4718C6.85966 12.555 6.86201 12.6382 6.86105 12.7217C6.85956 12.8493 6.85464 12.8532 6.73919 12.8727C6.3844 12.9325 6.03067 12.9977 5.68591 13.1086C5.60368 13.135 5.59385 13.1293 5.55626 13.043C5.52048 12.9606 5.48555 12.8778 5.44946 12.7955C5.30741 12.4682 4.97803 12.3624 4.6745 12.4801C4.56081 12.5239 4.44983 12.5753 4.34224 12.634C4.1657 12.7312 4.04929 12.8811 4.01116 13.0947C3.99154 13.2068 4.00145 13.3225 4.03978 13.429C4.07289 13.5251 4.11679 13.6159 4.15823 13.708C4.19336 13.7862 4.18941 13.804 4.12223 13.8473C3.83889 14.0302 3.57423 14.2406 3.31588 14.4607C3.28267 14.489 3.2518 14.521 3.21976 14.5501C3.16454 14.5994 3.14756 14.5993 3.0916 14.548C3.02976 14.4912 2.966 14.4364 2.90811 14.3752C2.68992 14.1444 2.2814 14.1458 2.06961 14.391C2.00713 14.4632 1.94765 14.5386 1.88356 14.6091C1.80603 14.6943 1.8009 14.6913 1.72144 14.6134C1.65394 14.547 1.49481 14.3982 1.48348 14.3894C1.37743 14.2636 1.38181 14.2627 1.48915 14.1338C2.40171 13.0381 3.55858 12.2041 4.8534 11.7083C5.50606 11.4584 6.17774 11.2955 6.86789 11.2322C7.28943 11.195 7.71297 11.1907 8.13509 11.2195C8.70675 11.256 9.27327 11.3558 9.82544 11.5173C10.2785 11.6491 10.7191 11.825 11.1418 12.0427C11.4306 12.1876 11.7107 12.3513 11.9806 12.5328C12.3586 12.7874 12.7165 13.0745 13.0506 13.3911C13.3703 13.6964 13.6704 14.0242 13.949 14.3721C13.9868 14.4221 14.0222 14.4741 14.055 14.528C14.3157 14.8409 14.5249 15.1926 14.7203 15.5524C15.1131 16.2729 15.407 17.0494 15.593 17.8585C15.658 18.1414 15.7012 18.4286 15.7492 18.715C15.7909 18.9649 15.9633 19.0505 16.1748 18.9295C16.4401 18.7778 16.6085 18.4173 16.57 18.0979C16.5616 18.0286 16.5166 17.9503 16.5865 17.8852C16.6419 17.852 16.703 17.8547 16.7634 17.8545C17.0838 17.8535 17.4035 17.8501 17.7235 17.8561C17.8556 17.8586 17.9441 17.8061 18.0149 17.6897C18.2795 17.2536 18.4811 16.7777 18.613 16.278C18.7169 15.888 18.7916 15.492 18.817 15.0864C18.82 15.0448 18.8194 15.0029 18.815 14.9615C18.8095 14.9121 18.8211 14.8716 18.864 14.8458C18.9334 14.8444 19.0852 14.8351 19.0921 14.8344C19.3578 14.8177 19.3578 14.8179 19.3583 15.102C19.3583 15.3178 19.3571 15.5337 19.359 15.7488C19.3607 15.946 19.4101 16.0069 19.5914 16.0555C20.0255 16.1731 20.4648 16.211 20.9126 16.1863C21.1194 16.1749 21.3217 16.1354 21.5269 16.1181C21.5694 16.1131 21.611 16.1016 21.6504 16.084C21.775 16.0333 21.8117 15.9818 21.8135 15.8378C21.8167 15.5692 21.8125 15.3007 21.8158 15.0321C21.8166 14.9735 21.8052 14.9092 21.8541 14.8617C21.9347 14.7958 22.0117 14.8461 22.0838 14.8782C22.2618 14.9577 22.3958 15.099 22.5188 15.2518C22.7465 15.5348 22.9156 15.858 23.0759 16.1867C23.09 16.2132 23.096 16.2437 23.093 16.274C23.0873 16.3475 23.0371 16.3842 22.9862 16.4194C22.5666 16.7078 22.1899 17.0502 21.8434 17.4324C21.446 17.8703 21.1164 18.3599 20.8373 18.889C20.5131 19.5036 20.2926 20.1587 20.1624 20.8493C20.1512 20.9071 20.1623 20.9893 20.0749 20.999Z" fill="#45423D"/>
<path d="M20.0746 20.999C20.1016 20.87 20.1273 20.7408 20.1557 20.6127C20.3879 19.5603 20.834 18.6211 21.4782 17.7868C21.9058 17.2293 22.4131 16.7466 22.9814 16.3563C23.0141 16.3335 23.0501 16.3154 23.0703 16.2767C23.0959 16.2313 25.0342 14.9046 27.2019 15.3309C27.3309 15.4305 27.3461 15.6222 27.276 15.7959C27.2075 15.9654 27.0799 16.0188 26.8754 16.0135C26.6867 16.0086 26.4984 15.9979 26.3105 16.0088C25.9946 16.0256 25.6804 16.0681 25.3707 16.1359C24.522 16.325 23.749 16.6918 23.0555 17.2453C22.2453 17.8919 21.6338 18.7097 21.2139 19.6893C21.0438 20.0894 20.9156 20.5082 20.8317 20.9382C20.8266 20.964 20.7569 21.3795 20.7356 21.563C20.7161 21.7334 20.6394 21.8522 20.4848 21.9085C20.2576 21.9909 20.0149 21.8146 20.01 21.5595C20.0073 21.4309 20.0333 21.3044 20.0515 21.1777C20.0588 21.1275 20.0667 21.0073 20.0746 20.999Z" fill="#A19D98"/>
<path d="M18.2252 20.1138C17.8376 20.1138 17.45 20.1151 17.0625 20.1133C16.8809 20.1124 16.7494 20.0181 16.6745 19.8452C16.5996 19.6723 16.6227 19.5044 16.7314 19.3543C16.8177 19.2356 16.9412 19.19 17.0784 19.1854C17.1708 19.1823 17.2633 19.1841 17.3561 19.1842C18.0103 19.1847 18.6645 19.1851 19.3187 19.1856C19.4427 19.1856 19.5581 19.2083 19.6564 19.2978C19.792 19.4217 19.8473 19.6224 19.7908 19.8012C19.7632 19.8918 19.7094 19.9709 19.6371 20.0272C19.5648 20.0834 19.4777 20.114 19.3881 20.1145C19.0005 20.1167 18.6131 20.1152 18.2255 20.1152L18.2252 20.1138Z" fill="#FCBE4F"/>
<path d="M5.96388 10.3061C5.98813 10.3267 6.0159 10.3272 6.04441 10.3212C6.28685 10.2708 6.53207 10.2417 6.7775 10.2147C6.79886 10.2122 6.78818 10.2125 6.84874 10.2064C7.71063 10.1382 8.85949 10.1884 9.76293 10.4422C9.96211 10.5008 10.1628 10.5444 10.3622 10.6026C10.3826 10.6039 11.3585 10.9835 11.7377 11.2003C11.7717 11.226 11.7882 11.2398 11.8125 11.2596C11.828 11.4455 11.7737 11.5852 11.6716 11.7121C11.5294 11.889 11.3416 12.0158 11.1314 12.0961C10.8611 11.9711 10.5919 11.8431 10.3127 11.7407C9.81872 11.5592 9.30974 11.4275 8.79253 11.3475C8.34187 11.2792 7.88676 11.25 7.43166 11.26C6.89469 11.2696 6.36007 11.3379 5.83626 11.4639C4.21045 11.8523 2.73628 12.7631 1.61364 14.0728C1.57775 14.1149 1.54112 14.1561 1.50513 14.1978C1.43037 14.2851 1.39769 14.3416 1.34258 14.411C1.25105 14.5265 1.16198 14.6443 1.0728 14.7618C0.864533 15.0362 0.498524 15.0509 0.270503 14.7633C0.116174 14.5685 0.142341 14.2748 0.267939 14.0898C0.404896 13.8918 0.551299 13.7014 0.706574 13.5193C0.865281 13.3304 1.01993 13.1375 1.19391 12.964C1.43774 12.7211 1.6805 12.4763 1.94569 12.2597C2.85126 11.5199 3.84377 10.9558 4.93763 10.5995C5.22669 10.5051 5.52028 10.4272 5.81714 10.366C5.86947 10.3555 5.92437 10.3516 5.96388 10.3061Z" fill="#EDAE50"/>
<path d="M14.863 13.9634C15.128 14.2968 15.3436 14.6661 15.5519 15.0403C15.7968 15.4805 16.0004 15.9422 16.1729 16.4195C16.3311 16.8578 16.4679 17.3029 16.5589 17.7629C16.5696 17.8147 16.5825 17.8652 16.5944 17.9172C16.6182 18.0583 16.6455 18.198 16.6165 18.3435C16.557 18.6419 16.4173 18.8754 16.1504 19.0055C15.9268 19.1144 15.7328 19.0005 15.6963 18.7416C15.6001 18.06 15.4431 17.3945 15.2038 16.7525C14.9207 15.9929 14.5496 15.287 14.0777 14.6408C14.0563 14.6111 14.0362 14.5798 14.0156 14.5492C14.0667 14.3689 14.1725 14.2231 14.2743 14.0732C14.3314 13.989 14.4198 14.0028 14.4935 13.9781C14.6126 13.9383 14.7378 13.9057 14.863 13.9634Z" fill="#EDAE50"/>
<path d="M14.8031 13.9481C14.2188 13.8979 14.0352 14.511 14.0165 14.5494C13.7642 14.2224 13.4979 13.9094 13.2081 13.619C12.6192 13.0271 11.951 12.5314 11.2253 12.1482C11.1932 12.1315 11.1624 12.1141 11.1309 12.0963C11.1581 12.0622 11.3985 12.0121 11.599 11.7214C11.7686 11.4755 11.8085 11.3087 11.8119 11.2598C12.0032 11.3362 12.1702 11.4604 12.3437 11.5707C12.6436 11.7597 12.9319 11.9688 13.2069 12.1967C13.4553 12.4044 13.6963 12.6207 13.9258 12.8531C14.0832 13.0122 14.2306 13.1806 14.3792 13.3474C14.5522 13.5414 14.7266 13.7366 14.8636 13.9637" fill="#FCD38C"/>
<path d="M29.958 16.7546C29.8952 16.6431 29.7998 16.5615 29.7231 16.4618C29.3102 15.9262 29.0142 15.3231 28.8058 14.6692C28.7819 14.5941 28.76 14.5182 28.7361 14.443C28.7261 14.4112 28.7185 14.3748 28.6758 14.376C28.1495 13.8966 27.5143 13.6293 26.8922 13.3365C25.9523 12.8949 24.971 12.5913 23.9783 12.3238C23.1997 12.114 22.4109 11.9584 21.6197 11.8144C21.5477 11.8014 21.4707 11.795 21.421 11.7236C21.408 11.6717 21.408 11.6188 21.4079 11.566C21.4068 10.9401 21.4072 10.3141 21.4089 9.68819C21.4089 9.62003 21.3891 9.54165 21.4583 9.49121C21.6143 9.53199 21.7754 9.53199 21.9337 9.55539C22.2327 9.59947 22.5337 9.6323 22.8323 9.68035C23.2189 9.74192 23.6068 9.79668 23.9904 9.87847C24.2552 9.93527 24.5215 9.9831 24.7858 10.0431C25.0955 10.1134 25.4053 10.1845 25.7112 10.2673C26.221 10.4051 26.7308 10.545 27.2277 10.7309C27.4255 10.8049 27.6217 10.8847 27.822 10.9504C28.0261 11.0172 28.1861 11.1506 28.3383 11.3007C28.6693 11.6273 28.9996 11.9548 29.3191 12.2943C29.5327 12.5215 29.7474 12.7471 29.9511 12.9847C30.0393 13.0877 30.1369 13.1818 30.2288 13.2819C30.3875 13.4553 30.5352 13.6394 30.6977 13.8091C30.8282 13.9454 30.9055 14.1171 30.9151 14.3136C30.9285 14.5897 30.9202 14.8635 30.8543 15.1352C30.733 15.635 30.5091 16.0759 30.2057 16.4745C30.1296 16.5737 30.051 16.6713 29.958 16.7546Z" fill="#EDAE50"/>
<path d="M16.6569 10.9207L15.9215 10.3782C15.9093 10.3704 15.8978 10.3616 15.8869 10.3518C15.8424 10.3064 15.8157 10.3273 15.7876 10.3745C15.7459 10.4447 15.6992 10.5116 15.6543 10.5797C15.548 10.7404 15.4439 10.9029 15.3347 11.0612C15.2535 11.1788 15.1505 11.215 15.0369 11.1772C14.8668 11.1204 14.79 10.9256 14.8742 10.7569C14.9007 10.7037 14.9359 10.6553 14.9683 10.6058C15.3423 10.0355 15.7166 9.46538 16.0911 8.89534C16.1146 8.85751 16.1405 8.82145 16.1687 8.78742C16.2663 8.67564 16.4143 8.65815 16.5263 8.74198C16.5808 8.78252 16.6193 8.84301 16.6345 8.91187C16.6497 8.98073 16.6404 9.05311 16.6085 9.11516C16.5753 9.18161 16.5326 9.24284 16.492 9.30476C16.3759 9.48129 16.2586 9.65691 16.1418 9.83288C16.0952 9.90308 16.0942 9.90456 16.1608 9.95398C16.4115 10.1398 16.6625 10.3251 16.9138 10.5099L16.6569 10.9207Z" fill="#45423E"/>
<path d="M19.6876 9.35028C19.7219 9.37606 19.7197 9.41537 19.7197 9.45252C19.7205 10.1159 19.7205 10.7791 19.7197 11.4423C19.7206 11.465 19.7169 11.4875 19.709 11.5086C19.665 11.5654 19.6022 11.5631 19.5428 11.5633C19.3228 11.5644 19.1029 11.5519 18.8832 11.5474C18.2691 11.5333 17.655 11.5418 17.0401 11.5431C16.9974 11.5431 16.9547 11.5456 16.915 11.5658C16.8917 11.5772 16.8703 11.5935 16.8736 11.6248C16.8769 11.656 16.9016 11.6657 16.9264 11.6726C16.9436 11.6773 16.9613 11.6795 16.9791 11.6791C17.2806 11.6721 17.5819 11.6854 17.884 11.6653C18.1739 11.6459 18.4654 11.6518 18.7566 11.6704C19.0078 11.6864 19.2599 11.6932 19.5116 11.7028C19.5757 11.7052 19.6398 11.7005 19.6968 11.7411C19.7253 11.8931 19.77 12.0435 19.7395 12.2017C19.7388 12.2162 19.735 12.2303 19.7282 12.2429C19.6812 12.3024 19.6082 12.3036 19.5472 12.3307C19.4316 12.3818 19.3742 12.4652 19.3778 12.6008C19.3943 13.2203 19.3484 13.839 19.3564 14.4584C19.3574 14.5302 19.3588 14.6018 19.3663 14.6733C19.3824 14.828 19.3422 14.879 19.1954 14.8948C19.1565 14.8989 19.1174 14.9002 19.0779 14.9012C19.0096 14.9022 18.9414 14.9026 18.8734 14.8969C18.6736 14.9301 18.4715 14.9324 18.2703 14.947C17.8972 14.9737 17.6231 14.8122 17.4289 14.4699C17.159 13.9949 16.8868 13.5216 16.6399 13.0324C16.5292 12.8129 16.4263 12.5893 16.3097 12.3728C16.1223 12.025 16.1202 11.685 16.3393 11.3521C16.4348 11.2071 16.5044 11.0436 16.6186 10.9122C16.6819 10.7539 16.7844 10.6221 16.8765 10.4832C17.0878 10.1517 17.3109 9.82933 17.5511 9.52079C17.6243 9.42662 17.7263 9.36857 17.8204 9.30097C17.945 9.26508 18.3971 9.25554 18.5118 9.25156C18.642 9.2469 18.7725 9.24974 18.9029 9.25156C18.965 9.25201 19.568 9.28678 19.6876 9.35028Z" fill="#EDAE50"/>
<path d="M27.3508 15.728C27.3105 15.7043 27.2855 15.6712 27.2882 15.6191C27.2964 15.4601 27.1996 15.3817 27.0813 15.3231C26.9237 15.2619 25.7227 15.1419 24.5287 15.583C24.1088 15.7276 23.7039 15.9081 23.323 16.1469C23.2528 16.191 23.1751 16.2208 23.1094 16.2737C23.1001 16.281 23.0824 16.2763 23.0687 16.2772C22.9751 16.1348 22.9131 15.9735 22.8287 15.8255C22.6981 15.5965 22.5599 15.3743 22.3833 15.1812C22.2445 15.0296 22.0874 14.9134 21.8886 14.8708C21.8339 14.8752 21.8258 14.8328 21.8191 14.7913C21.8132 14.7426 21.8111 14.6934 21.8129 14.6443C21.8129 14.3007 21.8071 13.9569 21.8143 13.6134C21.8209 13.2883 21.786 12.9648 21.7902 12.6401C21.7919 12.5165 21.7368 12.4326 21.63 12.3846C21.5875 12.3654 21.5462 12.3434 21.5063 12.3187C21.4758 12.2996 21.4428 12.2799 21.4562 12.2314L21.4602 11.9857C21.4956 11.9336 21.5436 11.941 21.5949 11.9491C22.1859 12.0437 22.7728 12.1605 23.3556 12.2996C24.0565 12.4682 24.7531 12.6532 25.4354 12.8944C25.9821 13.0875 26.5233 13.2975 27.0472 13.5544C27.2957 13.6763 27.5492 13.7883 27.7761 13.9535C27.8616 14.0156 27.9303 14.0982 27.9952 14.1842C28.1498 14.3887 28.1108 14.6261 28.0963 14.8588C28.092 14.9315 28.0594 14.999 28.0536 15.0721C27.9199 15.2885 27.8057 15.5178 27.7126 15.7571C27.6936 15.8069 27.6681 15.8253 27.6149 15.8062C27.5289 15.7751 27.4393 15.7538 27.3508 15.728Z" fill="#EDAE50"/>
<path d="M28.0544 15.0724C28.0246 15.0116 28.0293 14.9459 28.0404 14.8836C28.0637 14.7521 28.0555 14.6199 28.0555 14.4879C28.0555 14.3585 27.9882 14.2581 27.9145 14.1659C27.8219 14.0507 27.7086 13.9565 27.5811 13.8888C26.9846 13.5664 26.3672 13.2981 25.7353 13.0651C25.2787 12.8965 24.818 12.7427 24.3499 12.6152C23.7582 12.4542 23.1644 12.3056 22.5633 12.1836C22.2179 12.1136 21.87 12.0611 21.5244 11.9928C21.5036 11.9887 21.4817 11.988 21.4609 11.9856C21.4609 11.9023 21.4609 11.8192 21.4609 11.7363C21.6733 11.7578 21.8822 11.8027 22.0917 11.8428C22.3643 11.8949 22.6363 11.9502 22.9078 12.0089C23.1928 12.071 23.4781 12.1313 23.7599 12.2109C23.9759 12.2718 24.1944 12.3236 24.4109 12.3836C24.9406 12.5304 25.464 12.699 25.9809 12.8895C26.4007 13.0442 26.8068 13.236 27.2151 13.4214C27.6036 13.5985 27.9803 13.8035 28.3428 14.0348C28.449 14.1024 28.5468 14.1854 28.6472 14.2632C28.6827 14.2908 28.7147 14.324 28.6761 14.3755C28.5407 14.5032 28.401 14.6254 28.2809 14.771C28.2009 14.8679 28.1302 14.9719 28.0544 15.0724Z" fill="#FCD38C"/>
<path d="M19.6892 11.5101L19.6899 11.7592C18.9788 11.6971 17.6532 11.6971 16.984 11.7372C16.9332 11.7345 16.8825 11.729 16.8323 11.7205C16.7949 11.7115 16.7373 11.6602 16.7383 11.6282C16.74 11.5694 16.7718 11.541 16.8131 11.5192C16.8646 11.4917 16.9335 11.4866 16.9915 11.4866C17.6317 11.4866 18.2721 11.4763 18.9119 11.4927C19.1708 11.4993 19.4301 11.5034 19.6892 11.5101Z" fill="#FCD38C"/>
<path d="M30.6623 14.5314C30.6658 14.7758 30.6196 15.0006 30.5539 15.2214C30.4378 15.6122 30.2486 15.961 30.0078 16.2792C29.959 16.3438 29.9565 16.344 29.9054 16.2802C29.6713 15.9874 29.484 15.6629 29.3234 15.3196C29.2028 15.0617 29.104 14.7945 29.0155 14.5228C28.9882 14.4386 28.9914 14.4235 29.0706 14.3803C29.3478 14.229 29.6383 14.1215 29.9481 14.0745C30.0892 14.053 30.2317 14.0534 30.3728 14.035C30.387 14.0337 30.4013 14.0333 30.4155 14.0341C30.5497 14.0367 30.5708 14.0549 30.6212 14.1849C30.6659 14.3008 30.6651 14.421 30.6623 14.5314Z" fill="#FEFEFE"/>
<path d="M21.4482 9.54688C21.4482 10.269 21.4561 11.8529 21.4727 12.2972C21.433 12.3509 21.3816 12.3313 21.3351 12.3172C20.8344 12.1617 20.3303 12.1848 19.8247 12.2831C19.782 12.2913 19.7406 12.3026 19.7046 12.2654L19.7019 12.2691C19.6785 12.235 19.7019 8.70613 19.6989 8.48018C19.6975 8.38316 19.7128 8.29524 19.7582 8.21004C19.8139 8.1053 19.8625 7.99636 19.9143 7.88912C19.9215 7.88132 19.9311 7.87649 19.9414 7.87549C20.5243 8.14029 21.0058 8.44758 21.4447 8.92503C21.4383 9.09759 21.4447 9.32854 21.4482 9.54688Z" fill="#414141"/>
<path d="M19.943 7.83405H19.9343L19.9258 7.83235C19.9679 7.72545 19.9703 7.61344 19.9699 7.49961C19.9686 7.15972 19.9738 6.81972 19.9707 6.47994C19.9697 6.35601 20.0048 6.25559 20.0775 6.15869C20.4364 5.68048 20.8263 5.2296 21.2445 4.80935C21.5102 4.54216 21.7922 4.29395 22.1022 4.08447C22.1611 4.09947 22.1359 4.14025 22.1226 4.1716C21.9325 4.61737 21.9594 5.08483 22.0191 5.54877C22.0454 5.75325 22.0987 5.96398 22.2585 6.11416C22.2699 6.12363 22.2775 6.13729 22.2799 6.15244C22.2823 6.1676 22.2793 6.18315 22.2715 6.19606C21.9105 6.37452 21.6271 6.65171 21.3878 6.98444C21.3524 7.03352 21.3263 7.08543 21.335 7.15018C21.3191 7.55516 21.3226 7.95981 21.3359 8.62618C21.3353 8.63335 21.3344 8.64048 21.3331 8.64754C21.2797 8.68605 21.2449 8.64254 21.212 8.61278C21.0694 8.48373 20.9309 8.34979 20.7772 8.23472C20.6092 8.10873 20.4369 7.99116 20.2507 7.89755C20.1526 7.84848 20.0528 7.81531 19.943 7.83405Z" fill="#A19D98"/>
<path d="M22.3344 4.03467C22.4064 4.07295 22.4432 4.13691 22.4614 4.21904C22.5079 4.42788 22.5386 4.64035 22.5532 4.8544C22.5783 5.22042 22.5284 5.57462 22.4424 5.92599C22.4245 5.99914 22.4038 6.07128 22.3582 6.13171C22.3127 6.13989 22.2988 6.1049 22.2804 6.07139C22.0683 5.68379 22.0298 5.26086 22.0561 4.82521C22.0596 4.76545 22.0686 4.7057 22.0723 4.64549C22.0844 4.41407 22.1779 4.19597 22.3344 4.03467Z" fill="#A19D98"/>
<path d="M21.6802 12.3408C21.7908 12.3925 21.8452 12.4684 21.8497 12.6092C21.8721 13.3192 21.866 14.0292 21.8676 14.7391C21.8676 14.7846 21.8722 14.9738 21.8719 15.0264C21.8702 15.321 21.8655 15.6157 21.8693 15.9101C21.8707 16.0137 21.8302 16.0729 21.7461 16.1103C21.0429 16.3147 20.1296 16.3046 19.4893 16.0875C19.345 16.0409 19.3065 15.9836 19.3054 15.8251C19.3039 15.6175 19.3054 15.4097 19.3054 15.2019C19.3054 15.1151 19.3068 15.0282 19.3054 14.9413C19.3039 14.8544 19.3267 13.508 19.3267 13.4666C19.3267 13.1493 19.329 12.8319 19.326 12.5146C19.325 12.4149 19.3595 12.3549 19.4471 12.3132C20.4641 11.9715 20.9979 12.0709 21.6802 12.3408Z" fill="#A19D98"/>
<path d="M19.516 14.2105V12.6791C19.516 12.6526 19.5152 12.6261 19.516 12.5995C19.5182 12.4944 19.5266 12.4803 19.6218 12.4433C19.9794 12.2974 21.025 12.1593 21.5831 12.551C21.6712 12.6003 21.6853 12.6507 21.6891 12.7698C21.7035 13.038 21.6785 15.0305 21.6793 15.7979C21.6793 15.8132 21.6793 15.8283 21.6793 15.8434C21.6768 15.9528 21.6698 15.958 21.5654 15.9811C20.9144 16.125 20.2671 16.106 19.6225 15.9356C19.5271 15.9105 19.522 15.908 19.5218 15.7981C19.521 15.4464 19.521 15.0947 19.5218 14.7431C19.5218 14.5653 19.5218 14.3876 19.5218 14.2098L19.516 14.2105Z" fill="#45423D"/>
<path d="M19.9189 7.85593C19.9313 7.7588 19.9872 7.74869 20.0946 7.7755C20.2237 7.81636 20.3472 7.87506 20.462 7.95011C20.7176 8.11233 20.9623 8.29091 21.177 8.51243C21.225 8.56195 21.2806 8.6033 21.3328 8.64795C21.3401 8.68059 21.3566 8.71005 21.3802 8.73235C21.448 8.79722 21.4572 8.8722 21.4434 8.96682C21.3307 8.94978 21.2674 8.87822 21.1959 8.79438C21.002 8.56718 20.7754 8.38326 20.5351 8.21582C20.387 8.11267 20.1604 7.99998 19.9959 7.93023C19.9395 7.90637 19.9124 7.90785 19.9189 7.85593Z" fill="#DCF9FB"/>
<path d="M22.3359 4.03466C22.3738 4.0567 22.3982 4.06681 22.3004 4.15883C22.1768 4.27674 22.0949 4.57403 22.1033 5.0616C22.1113 5.38479 22.1152 5.67254 22.3596 6.13171C22.339 6.16579 22.3119 6.1909 22.2722 6.19601C21.8585 5.76331 21.8984 4.43181 22.1028 4.08442C22.1875 3.99115 22.2371 3.98059 22.3359 4.03466Z" fill="#DCF9FB"/>
</g>
<defs>
<clipPath id="clip0_280_95125">
<rect width="32" height="28" fill="white"/>
</clipPath>
</defs>
</svg>
